<svg width="1152" height="115" viewBox="0 0 1152 115" fill="none" xmlns="http://www.w3.org/2000/svg">
<path opacity="0.7" d="M206 47.4681C153.6 49.817 44.1667 63.7802 -4 70.4681V115H1170V0C1151.33 13.539 1041.5 84.0723 1019.5 89.5532C992 96.4043 963 55.2979 864.5 72.4255C805.425 82.6978 767.5 47.4681 690.5 47.4681C613.5 47.4681 557.5 70.4681 491 70.4681C424.5 70.4681 271.5 44.5319 206 47.4681Z" fill="#A1C5FB"/>
<path opacity="0.7" d="M212.098 65.0802C118.06 63.7233 12.1834 45.0089 -29 35.8213V300H1201V65.0802C1192.5 55.3272 1161.08 34.2099 1103.46 27.7644C1031.43 19.7076 954.4 77.8015 853.359 86.2824C752.318 94.7632 683.289 43.03 537.73 35.8213C392.171 28.6125 329.646 66.7764 212.098 65.0802Z" fill="url(#paint0_linear)"/>
<defs>
<linearGradient id="paint0_linear" x1="586" y1="300" x2="586" y2="27" gradientUnits="userSpaceOnUse">
<stop stop-color="#669CEE"/>
<stop offset="1" stop-color="#4884DF"/>
</linearGradient>
</defs>
</svg>
