<svg width="1476" height="173" viewBox="0 0 1476 173" fill="none" xmlns="http://www.w3.org/2000/svg">
<mask id="mask0" mask-type="alpha" maskUnits="userSpaceOnUse" x="0" y="0" width="1476" height="173">
<rect width="1476" height="173" fill="white"/>
</mask>
<g mask="url(#mask0)">
<ellipse rx="129.299" ry="130" transform="matrix(1 0 0 -1 78.2992 130)" fill="url(#paint0_linear)"/>
<ellipse rx="129.299" ry="130" transform="matrix(1 0 0 -1 237.299 199)" fill="url(#paint1_linear)"/>
<ellipse rx="129.299" ry="130" transform="matrix(1 0 0 -1 1384.3 173)" fill="url(#paint2_linear)"/>
<ellipse rx="169.581" ry="130" transform="matrix(1 0 0 -1 404.581 225)" fill="url(#paint3_linear)"/>
<ellipse rx="169.581" ry="130" transform="matrix(1 0 0 -1 1293.58 246)" fill="url(#paint4_linear)"/>
<path d="M-0.995361 163.5V229H1476V163.5C1408.69 147.667 1172.91 116 768.273 116C363.638 116 86.8294 147.667 -0.995361 163.5Z" fill="#102E75"/>
</g>
<defs>
<linearGradient id="paint0_linear" x1="159.137" y1="130" x2="128.991" y2="259.929" gradientUnits="userSpaceOnUse">
<stop stop-color="#2149A7"/>
<stop offset="1" stop-color="#0A2E83"/>
</linearGradient>
<linearGradient id="paint1_linear" x1="159.137" y1="130" x2="128.991" y2="259.929" gradientUnits="userSpaceOnUse">
<stop stop-color="#2149A7"/>
<stop offset="1" stop-color="#0A2E83"/>
</linearGradient>
<linearGradient id="paint2_linear" x1="159.137" y1="130" x2="128.991" y2="259.929" gradientUnits="userSpaceOnUse">
<stop stop-color="#2149A7"/>
<stop offset="1" stop-color="#0A2E83"/>
</linearGradient>
<linearGradient id="paint3_linear" x1="208.715" y1="130" x2="185.227" y2="262.768" gradientUnits="userSpaceOnUse">
<stop stop-color="#2149A7"/>
<stop offset="1" stop-color="#0A2E83"/>
</linearGradient>
<linearGradient id="paint4_linear" x1="208.715" y1="130" x2="185.227" y2="262.768" gradientUnits="userSpaceOnUse">
<stop stop-color="#2149A7"/>
<stop offset="1" stop-color="#0A2E83"/>
</linearGradient>
</defs>
</svg>
