<svg width="802" height="163" viewBox="0 0 802 163" fill="none" xmlns="http://www.w3.org/2000/svg">
<path d="M12.5552 3.11329C12.832 2.16877 14.1633 2.15034 14.4662 3.08683L16.714 10.0359C16.8128 10.3413 17.0522 10.5808 17.3577 10.6796L24.3068 12.9273C25.2433 13.2303 25.2249 14.5615 24.2804 14.8384L17.5041 16.8249C17.1772 16.9207 16.9216 17.1763 16.8258 17.5032L14.8393 24.2794C14.5625 25.2239 13.2312 25.2424 12.9283 24.3059L10.6805 17.3568C10.5817 17.0513 10.3422 16.8119 10.0368 16.7131L3.08774 14.4653C2.15125 14.1624 2.16969 12.8311 3.1142 12.5542L9.89046 10.5679C10.2173 10.472 10.473 10.2164 10.5688 9.88955L12.5552 3.11329Z" fill="#FFF96A"/>
<path d="M752.554 29.1133C752.831 28.1688 754.162 28.1503 754.465 29.0868L756.713 36.0359C756.812 36.3413 757.051 36.5808 757.357 36.6796L764.306 38.9273C765.242 39.2303 765.224 40.5615 764.279 40.8384L757.503 42.8249C757.176 42.9207 756.921 43.1763 756.825 43.5032L754.838 50.2794C754.561 51.2239 753.23 51.2424 752.927 50.3059L750.68 43.3568C750.581 43.0513 750.341 42.8119 750.036 42.7131L743.087 40.4653C742.15 40.1624 742.169 38.8311 743.113 38.5542L749.889 36.5679C750.216 36.472 750.472 36.2164 750.568 35.8895L752.554 29.1133Z" fill="#FFF96A"/>
<path opacity="0.6" d="M275.161 133.113C275.437 132.169 276.769 132.15 277.072 133.087L278.209 136.603C278.308 136.908 278.547 137.148 278.853 137.247L282.369 138.384C283.305 138.687 283.287 140.018 282.342 140.295L278.964 141.286C278.637 141.381 278.381 141.637 278.286 141.964L277.295 145.343C277.018 146.287 275.687 146.305 275.384 145.369L274.247 141.853C274.148 141.547 273.908 141.308 273.603 141.209L270.087 140.072C269.15 139.769 269.169 138.438 270.113 138.161L273.492 137.17C273.819 137.074 274.074 136.819 274.17 136.492L275.161 133.113Z" fill="#FFF96A"/>
<path opacity="0.6" d="M684.161 130.113C684.437 129.169 685.769 129.15 686.072 130.087L687.209 133.603C687.308 133.908 687.547 134.148 687.853 134.247L691.369 135.384C692.305 135.687 692.287 137.018 691.342 137.295L687.964 138.286C687.637 138.381 687.381 138.637 687.286 138.964L686.295 142.343C686.018 143.287 684.687 143.305 684.384 142.369L683.247 138.853C683.148 138.547 682.908 138.308 682.603 138.209L679.087 137.072C678.15 136.769 678.169 135.438 679.113 135.161L682.492 134.17C682.819 134.074 683.074 133.819 683.17 133.492L684.161 130.113Z" fill="#FFF96A"/>
<ellipse cx="797.5" cy="18" rx="4.5" ry="4" fill="#7896C9"/>
<circle opacity="0.3" cx="789" cy="95.6806" r="4" fill="#7896C9"/>
<circle opacity="0.3" cx="763" cy="145" r="4" fill="#7896C9"/>
<circle cx="80.5" cy="148.5" r="3.5" fill="#7896C9"/>
<ellipse opacity="0.3" cx="542.5" cy="159" rx="3.5" ry="4" fill="#7896C9"/>
<ellipse opacity="0.3" cx="404.956" cy="158" rx="3.5" ry="4" fill="#7896C9"/>
<circle opacity="0.2" cx="41" cy="123.319" r="4" fill="#7896C9"/>
<circle opacity="0.3" cx="81" cy="61" r="4" fill="#7896C9"/>
</svg>
