<svg width="765" height="140" viewBox="0 0 765 140" fill="none" xmlns="http://www.w3.org/2000/svg">
<path d="M86.5542 3.11329C86.831 2.16877 88.1623 2.15034 88.4653 3.08683L90.713 10.0359C90.8118 10.3413 91.0512 10.5808 91.3567 10.6796L98.3058 12.9273C99.2423 13.2303 99.2239 14.5615 98.2794 14.8384L91.5031 16.8249C91.1763 16.9207 90.9206 17.1763 90.8248 17.5032L88.8384 24.2794C88.5615 25.2239 87.2302 25.2424 86.9273 24.3059L84.6795 17.3568C84.5807 17.0513 84.3413 16.8119 84.0358 16.7131L77.0868 14.4653C76.1503 14.1624 76.1687 12.8311 77.1132 12.5542L83.8895 10.5679C84.2164 10.472 84.472 10.2164 84.5678 9.88955L86.5542 3.11329Z" fill="#FFF96A"/>
<path d="M715.554 20.1133C715.831 19.1688 717.162 19.1503 717.465 20.0868L719.713 27.0359C719.812 27.3413 720.051 27.5808 720.357 27.6796L727.306 29.9273C728.242 30.2303 728.224 31.5615 727.279 31.8384L720.503 33.8249C720.176 33.9207 719.921 34.1763 719.825 34.5032L717.838 41.2794C717.561 42.2239 716.23 42.2424 715.927 41.3059L713.68 34.3568C713.581 34.0513 713.341 33.8119 713.036 33.7131L706.087 31.4653C705.15 31.1624 705.169 29.8311 706.113 29.5542L712.889 27.5679C713.216 27.472 713.472 27.2164 713.568 26.8895L715.554 20.1133Z" fill="#FFF96A"/>
<path opacity="0.6" d="M647.161 121.113C647.437 120.169 648.769 120.15 649.072 121.087L650.209 124.603C650.308 124.908 650.547 125.148 650.853 125.247L654.369 126.384C655.305 126.687 655.287 128.018 654.342 128.295L650.964 129.286C650.637 129.381 650.381 129.637 650.286 129.964L649.295 133.343C649.018 134.287 647.687 134.305 647.384 133.369L646.247 129.853C646.148 129.547 645.908 129.308 645.603 129.209L642.087 128.072C641.15 127.769 641.169 126.438 642.113 126.161L645.492 125.17C645.819 125.074 646.074 124.819 646.17 124.492L647.161 121.113Z" fill="#FFF96A"/>
<ellipse cx="760.5" cy="9" rx="4.5" ry="4" fill="#7896C9"/>
<circle opacity="0.3" cx="752" cy="86.6806" r="4" fill="#7896C9"/>
<circle opacity="0.3" cx="726" cy="136" r="4" fill="#7896C9"/>
<circle cx="110.5" cy="113.5" r="3.5" fill="#7896C9"/>
<circle opacity="0.2" cx="4" cy="114.319" r="4" fill="#7896C9"/>
<circle opacity="0.3" cx="44" cy="52" r="4" fill="#7896C9"/>
</svg>
