<svg width="221" height="176" viewBox="0 0 221 176" fill="none" xmlns="http://www.w3.org/2000/svg">
<path d="M165.716 19.7729C169.644 19.7729 172.828 16.5885 172.828 12.6604C172.828 8.73224 169.644 5.54785 165.716 5.54785C161.787 5.54785 158.603 8.73224 158.603 12.6604C158.603 16.5885 161.787 19.7729 165.716 19.7729Z" fill="#2F2E41"/>
<path d="M160.689 17.0001C160.689 17.0001 159.66 29.9554 158.426 29.9554C157.191 29.9554 172.829 29.3457 172.829 29.3457C172.829 29.3457 166.245 20.8105 169.537 18.067C172.829 15.3235 160.689 17.0001 160.689 17.0001Z" fill="#9F616A"/>
<path opacity="0.1" d="M160.689 17.0001C160.689 17.0001 159.66 29.9554 158.426 29.9554C157.191 29.9554 172.829 29.3457 172.829 29.3457C172.829 29.3457 166.245 20.8105 169.537 18.067C172.829 15.3235 160.689 17.0001 160.689 17.0001Z" fill="black"/>
<path d="M131.918 165.968C117.61 165.968 103.744 161.007 92.6828 151.93C81.622 142.853 74.0508 130.221 71.2593 116.187C68.4678 102.154 70.6286 87.5862 77.3736 74.9671C84.1186 62.348 95.0305 52.458 108.25 46.9823C121.469 41.5066 136.178 40.784 149.871 44.9375C163.564 49.0911 175.392 57.8638 183.342 69.761C191.291 81.6582 194.87 95.9437 193.467 110.183C192.065 124.423 185.768 137.736 175.65 147.854C169.921 153.615 163.105 158.182 155.599 161.292C148.092 164.401 140.043 165.991 131.918 165.968ZM131.918 42.9159C98.1692 42.9159 70.7124 70.3727 70.7124 104.122C70.7124 137.871 98.1692 165.327 131.918 165.327C165.667 165.327 193.124 137.871 193.124 104.122C193.124 70.3727 165.667 42.9159 131.918 42.9159Z" fill="#353535"/>
<path d="M179.164 45.345L171.974 47.4022L182.017 46.9441C184.274 46.8214 186.492 47.5679 188.216 49.0301C190.005 50.579 191.448 53.0357 190.059 56.6675C187.282 63.931 183.009 70.7673 183.009 70.7673L180.232 76.1081C180.232 76.1081 174.464 76.9626 174.25 75.2536C174.036 73.5445 174.25 72.69 175.318 71.8354C176.386 70.9809 177.027 69.2718 177.027 68.4173C177.027 67.5628 176.814 66.7083 177.455 66.281C178.095 65.8537 178.309 65.2128 178.309 63.931C178.309 62.6492 182.015 57.0157 182.015 57.0157C182.015 57.0157 174.25 54.3175 170.906 56.5884C167.562 58.8592 160.791 68.8446 160.791 68.8446C160.347 69.3092 159.975 69.8379 159.687 70.413C159.344 71.0805 158.869 71.6714 158.291 72.1498C157.67 72.6957 158.242 74.1995 158.441 74.399C158.655 74.6127 160.791 83.158 160.791 83.158C160.791 83.158 163.141 87.217 160.578 87.4306C158.014 87.6443 155.664 87.8579 155.45 87.4306C155.213 86.8384 154.927 86.2668 154.596 85.7216C153.955 84.6534 154.596 82.3034 154.596 82.3034C154.596 82.3034 148.4 74.399 150.323 69.4855C152.246 64.5719 156.305 53.463 156.305 53.463L162.5 50.8994L173.823 46.8404L179.164 45.345Z" fill="#353535"/>
<path d="M136.01 22.2727L127.251 20.5636C127.251 20.5636 125.115 13.3001 122.551 14.1546C119.987 15.0091 124.26 22.2727 124.26 22.2727L136.437 27.8271L136.01 22.2727Z" fill="#A0616A"/>
<path d="M189.205 29.5364L193.05 34.4499C193.05 34.4499 198.604 34.2363 196.895 37.2272C195.186 40.218 191.341 38.509 191.127 37.8681C190.914 37.2272 184.718 31.6727 184.718 31.6727L189.205 29.5364Z" fill="#A0616A"/>
<path d="M169.197 23.0482L163.643 27.3209L160.225 22.1937L133.734 20.6982V29.4572C140.254 27.5748 146.254 26.9917 151.039 29.4572C157.094 37.5206 158.427 46.2768 154.596 55.7902L185.861 44.8388C176.49 41.3494 172.14 36.2909 173.47 29.4572L184.365 33.3026L190.988 28.389C185.066 24.4039 176.252 21.9045 169.197 23.0482Z" fill="#2F80ED"/>
<path d="M110.448 176C171.447 176 220.896 172.27 220.896 167.668C220.896 163.067 171.447 159.337 110.448 159.337C49.4493 159.337 0 163.067 0 167.668C0 172.27 49.4493 176 110.448 176Z" fill="#535353"/>
<path opacity="0.1" d="M79.5783 173.009C120.814 173.009 154.243 170.522 154.243 167.455C154.243 164.387 120.814 161.9 79.5783 161.9C38.3421 161.9 4.91357 164.387 4.91357 167.455C4.91357 170.522 38.3421 173.009 79.5783 173.009Z" fill="black"/>
<path d="M199.781 156.359C199.07 162.595 202.904 168.154 202.904 168.154C202.904 168.154 207.891 163.602 208.603 157.366C209.314 151.13 205.481 145.571 205.481 145.571C205.481 145.571 200.493 150.123 199.781 156.359Z" fill="#2F2E41"/>
<path d="M202.5 156.037C205.065 161.766 203.093 168.224 203.093 168.224C203.093 168.224 196.962 165.394 194.397 159.666C191.832 153.938 193.804 147.479 193.804 147.479C193.804 147.479 199.935 150.309 202.5 156.037Z" fill="#2F80ED"/>
<path d="M133.64 167.339C146.861 167.339 157.579 156.622 157.579 143.401C157.579 130.18 146.861 119.462 133.64 119.462C120.419 119.462 109.701 130.18 109.701 143.401C109.701 156.622 120.419 167.339 133.64 167.339Z" fill="#F2F2F2"/>
<path d="M133.64 106.495L127.743 121.238L106.418 121.409L99.471 121.465L82.9852 121.598L76.0411 121.654L59.5553 121.786L52.6113 121.843L36.1254 121.978L29.1814 122.034L18.0532 122.123L15.9007 117.717L13.1084 112.012L11.5662 108.854L10.6816 106.495L15.9744 89.7318C16.4919 88.094 17.5178 86.6636 18.9032 85.6482C20.2887 84.6329 21.9616 84.0854 23.6792 84.0852H119.976C121.644 84.0861 123.27 84.6029 124.633 85.5648C125.995 86.5266 127.027 87.8864 127.586 89.4576L128.2 91.1855L133.64 106.495Z" fill="#2F80ED"/>
<path d="M133.64 106.495H10.6816V137.456H133.64V106.495Z" fill="#2F80ED"/>
<path opacity="0.1" d="M133.64 106.495H10.6816V137.456H133.64V106.495Z" fill="black"/>
<path d="M135.453 63.9675H131.826V67.5946H135.453V63.9675Z" fill="#353535"/>
<path d="M145.247 141.587H141.62V145.214H145.247V141.587Z" fill="#353535"/>
<path d="M111.378 66.5408H32.6489V165.615H111.378V66.5408Z" fill="#F2F2F2"/>
<path d="M72.1605 73.6174H49.1611V76.8609H72.1605V73.6174Z" fill="#353535"/>
<path d="M106.365 87.1001H37.0718V88.5744H106.365V87.1001Z" fill="#E6E6E6"/>
<path d="M106.365 91.6042H37.0718V93.0786H106.365V91.6042Z" fill="#E6E6E6"/>
<path d="M106.365 96.322H37.0718V97.7963H106.365V96.322Z" fill="#E6E6E6"/>
<path d="M106.365 101.04H37.0718V102.514H106.365V101.04Z" fill="#E6E6E6"/>
<path d="M106.365 105.758H37.0718V107.232H106.365V105.758Z" fill="#E6E6E6"/>
<path d="M106.365 110.476H37.0718V111.95H106.365V110.476Z" fill="#E6E6E6"/>
<path d="M40.0205 79.5149C39.0291 79.5149 38.0599 79.2209 37.2356 78.6701C36.4113 78.1193 35.7688 77.3364 35.3894 76.4205C35.01 75.5045 34.9107 74.4966 35.1041 73.5243C35.2975 72.5519 35.775 71.6587 36.476 70.9577C37.177 70.2567 38.0702 69.7792 39.0426 69.5858C40.0149 69.3924 41.0228 69.4917 41.9388 69.8711C42.8547 70.2505 43.6376 70.893 44.1884 71.7173C44.7392 72.5416 45.0332 73.5108 45.0332 74.5022C45.0317 75.8312 44.5031 77.1053 43.5634 78.045C42.6236 78.9848 41.3495 79.5134 40.0205 79.5149ZM40.0205 70.0792C39.1457 70.0792 38.2906 70.3386 37.5632 70.8246C36.8359 71.3106 36.269 72.0014 35.9342 72.8096C35.5995 73.6178 35.5119 74.5071 35.6825 75.3651C35.8532 76.223 36.2744 77.0111 36.893 77.6297C37.5116 78.2483 38.2997 78.6695 39.1576 78.8402C40.0156 79.0108 40.9049 78.9232 41.7131 78.5885C42.5213 78.2537 43.2121 77.6868 43.6981 76.9594C44.1841 76.2321 44.4435 75.377 44.4435 74.5022C44.4421 73.3295 43.9757 72.2053 43.1465 71.3761C42.3174 70.547 41.1931 70.0805 40.0205 70.0792Z" fill="#EB5757"/>
<path d="M133.64 168.121H10.6816V106.495L26.6043 118.879L118.307 118.289L133.64 106.495V168.121Z" fill="#535353"/>
<path d="M40.0204 153.821H17.021V157.064H40.0204V153.821Z" fill="#F2F2F2"/>
<path d="M29.0909 147.73C28.5839 147.73 28.0883 147.58 27.6667 147.298C27.2451 147.016 26.9165 146.616 26.7225 146.147C26.5285 145.679 26.4777 145.164 26.5766 144.666C26.6755 144.169 26.9197 143.712 27.2782 143.354C27.6367 142.995 28.0935 142.751 28.5908 142.652C29.0881 142.553 29.6035 142.604 30.072 142.798C30.5404 142.992 30.9408 143.321 31.2225 143.742C31.5042 144.164 31.6545 144.659 31.6545 145.166C31.6538 145.846 31.3834 146.498 30.9028 146.978C30.4222 147.459 29.7706 147.729 29.0909 147.73ZM29.0909 143.03C28.6684 143.03 28.2554 143.155 27.9041 143.39C27.5527 143.625 27.2789 143.958 27.1172 144.349C26.9555 144.739 26.9132 145.169 26.9957 145.583C27.0781 145.998 27.2816 146.378 27.5803 146.677C27.8791 146.976 28.2598 147.179 28.6742 147.262C29.0886 147.344 29.5181 147.302 29.9085 147.14C30.2988 146.978 30.6325 146.705 30.8672 146.353C31.102 146.002 31.2273 145.589 31.2273 145.166C31.2266 144.6 31.0014 144.057 30.6009 143.656C30.2004 143.256 29.6573 143.031 29.0909 143.03Z" fill="white"/>
<path d="M179.591 75.04C179.591 75.04 180.873 79.9535 181.3 80.1672C181.727 80.3808 186.427 84.4398 183.223 85.0807C180.018 85.7216 177.668 85.508 177.027 84.8671C176.386 84.2262 176.6 83.5853 175.532 83.3717C174.464 83.158 172.541 82.5171 172.755 81.0217C172.968 79.5263 174.036 75.4673 174.677 75.04C175.318 74.6127 179.591 75.04 179.591 75.04Z" fill="#353535"/>
<path d="M161.005 85.9353C161.005 85.9353 162.928 87.4307 161.86 90.208C160.791 92.9852 159.296 95.976 159.296 95.976C159.296 95.976 157.587 101.317 154.81 100.462C153.681 100.115 153.117 99.1687 152.845 98.167C152.649 97.4101 152.617 96.6201 152.75 95.8497C152.884 95.0793 153.181 94.3464 153.621 93.7L155.237 91.2761L156.946 86.7898L161.005 85.9353Z" fill="#353535"/>
<path d="M156.316 106.618C160.145 106.618 164.883 105.35 169.501 100.764C180.804 89.5381 191.543 88.4122 191.65 88.4021L191.61 87.9766C191.501 87.9868 180.61 89.1282 169.199 100.461C163.336 106.284 157.284 106.641 153.24 105.914C150.568 105.429 148.024 104.404 145.763 102.901L145.51 103.246C147.819 104.783 150.418 105.833 153.147 106.332C154.193 106.522 155.253 106.617 156.316 106.618Z" fill="#353535"/>
<path d="M185.893 97.3647C187.309 97.3647 188.457 96.217 188.457 94.8011C188.457 93.3853 187.309 92.2375 185.893 92.2375C184.477 92.2375 183.33 93.3853 183.33 94.8011C183.33 96.217 184.477 97.3647 185.893 97.3647Z" fill="#353535"/>
<path d="M167.734 109.328C169.15 109.328 170.298 108.18 170.298 106.765C170.298 105.349 169.15 104.201 167.734 104.201C166.319 104.201 165.171 105.349 165.171 106.765C165.171 108.18 166.319 109.328 167.734 109.328Z" fill="#353535"/>
<path d="M165.139 21.8144C167.971 21.8144 170.266 19.5192 170.266 16.6881C170.266 13.8569 167.971 11.5618 165.139 11.5618C162.308 11.5618 160.013 13.8569 160.013 16.6881C160.013 19.5192 162.308 21.8144 165.139 21.8144Z" fill="#A0616A"/>
<path d="M169.428 0C168.891 0.767605 168.094 1.31526 167.185 1.54217C165.616 1.96223 167.172 4.31956 167.172 4.31956C167.172 4.31956 166.606 3.46235 167.422 2.55454C168.238 1.64674 169.552 1.02609 169.428 0Z" fill="#2F2E41"/>
<path d="M166.894 6.86719C167.989 6.86719 168.876 5.97974 168.876 4.88501C168.876 3.79028 167.989 2.90283 166.894 2.90283C165.8 2.90283 164.912 3.79028 164.912 4.88501C164.912 5.97974 165.8 6.86719 166.894 6.86719Z" fill="#2F2E41"/>
<path d="M169.425 6.54643C167.809 5.93523 165.118 5.62533 163.734 5.83717L163.924 4.45093C165.255 5.13873 167.933 5.46195 169.615 5.16019L169.425 6.54643Z" fill="#3F3D56"/>
<path d="M165.871 8.11084C165.871 8.11084 163.845 11.4794 159.136 12.7404C154.427 14.0014 159.098 21.0781 159.098 21.0781C159.098 21.0781 157.399 18.5047 159.849 15.7795C162.299 13.0543 166.241 11.1911 165.871 8.11084Z" fill="#2F2E41"/>
<path d="M166.031 7.90601C166.031 7.90601 167.977 12.5329 170.113 12.9703C172.249 13.4077 172.087 20.7186 168.747 21.8149C168.747 21.8149 171.182 17.529 169.1 14.6546C167.018 11.7802 165.703 9.50792 166.031 7.90601Z" fill="#2F2E41"/>
</svg>
