<svg width="1156" height="698" viewBox="0 0 1156 698" fill="none" xmlns="http://www.w3.org/2000/svg">
<g clip-path="url(#clip0)">
<path opacity="0.1" d="M1143.41 650.64C1138.94 661.639 1133.45 672.192 1127 682.16C1123.97 686.914 1120.65 691.477 1117.06 695.82L1116.95 695.95H5.59998L5.79998 695.81C6.79998 695.03 12.67 690.28 21.8 682.15C28.35 676.31 36.57 668.73 45.8 659.61C121.29 585.36 266.3 409.61 145.53 248.61C33.26 98.94 154.14 71.77 233.88 68.61C264.519 67.4206 295.084 72.4167 323.75 83.3C360.58 97.3 427.91 118.77 515.63 128.6C518.51 128.927 521.417 129.24 524.35 129.54C570.792 134.265 617.547 135.111 664.13 132.07C665.5 132 666.88 131.9 668.27 131.8C714.352 128.556 760.083 121.478 804.99 110.64C807.9 109.93 810.77 109.26 813.63 108.64C963.26 74.02 1101.2 192.01 1066.72 325.36C1053.96 374.67 1057.2 427.25 1099.72 469.77C1169.27 539.21 1160.8 607.57 1143.41 650.64Z" fill="#2F80ED"/>
<path d="M907.029 277.024C910.816 270.251 909.693 262.416 904.52 259.524C899.348 256.632 892.085 259.778 888.298 266.551C884.512 273.324 885.635 281.159 890.807 284.051C895.98 286.943 903.243 283.797 907.029 277.024Z" fill="#434F5F"/>
<path d="M915.405 262.034C919.192 255.261 918.069 247.427 912.896 244.535C907.724 241.643 900.461 244.789 896.674 251.562C892.887 258.334 894.011 266.169 899.183 269.061C904.355 271.953 911.618 268.807 915.405 262.034Z" fill="#434F5F"/>
<path d="M923.79 247.049C927.576 240.277 926.453 232.442 921.281 229.55C916.108 226.658 908.845 229.804 905.058 236.577C901.272 243.35 902.395 251.184 907.567 254.076C912.74 256.968 920.003 253.822 923.79 247.049Z" fill="#434F5F"/>
<path d="M932.165 232.05C935.952 225.277 934.829 217.442 929.656 214.55C924.484 211.658 917.221 214.804 913.434 221.577C909.647 228.35 910.771 236.185 915.943 239.077C921.116 241.969 928.378 238.823 932.165 232.05Z" fill="#434F5F"/>
<path d="M940.536 217.069C944.323 210.296 943.2 202.461 938.027 199.569C932.855 196.677 925.592 199.823 921.805 206.596C918.018 213.369 919.142 221.204 924.314 224.096C929.486 226.988 936.749 223.842 940.536 217.069Z" fill="#434F5F"/>
<path d="M948.922 202.079C952.709 195.306 951.585 187.471 946.413 184.579C941.24 181.688 933.978 184.834 930.191 191.607C926.404 198.379 927.527 206.214 932.7 209.106C937.872 211.998 945.135 208.852 948.922 202.079Z" fill="#434F5F"/>
<path d="M957.306 187.094C961.093 180.322 959.97 172.487 954.797 169.595C949.625 166.703 942.362 169.849 938.575 176.622C934.788 183.395 935.912 191.229 941.084 194.121C946.257 197.013 953.519 193.867 957.306 187.094Z" fill="#434F5F"/>
<path d="M1040.3 98.87C1042.49 97.9552 1044.61 96.8928 1046.66 95.69L1024.31 77.88L1050.8 92.96C1056.46 88.831 1061.22 83.5914 1064.78 77.5615C1068.34 71.5315 1070.64 64.838 1071.53 57.89L1025.46 56.45L1071.93 50.66C1071.88 43.571 1070.36 36.5699 1067.47 30.0965C1064.58 23.6232 1060.38 17.8175 1055.14 13.0442C1049.9 8.27096 1043.72 4.63332 1037.01 2.35986C1030.29 0.0864029 1023.18 -0.773744 1016.12 -0.166534C1009.05 0.440676 1002.19 2.50211 995.966 5.88827C989.737 9.27442 984.277 13.9121 979.927 19.5099C975.577 25.1077 972.432 31.5447 970.689 38.4163C968.946 45.2879 968.644 52.4458 969.8 59.44C966.389 60.8617 963.14 62.6452 960.11 64.76L982.8 99.22L955.13 68.74C948.782 74.4721 943.964 81.697 941.113 89.7606C938.262 97.8242 937.467 106.472 938.8 114.92C929.897 118.63 922.217 124.77 916.638 132.638C911.06 140.506 907.808 149.785 907.254 159.414C906.7 169.044 908.866 178.635 913.506 187.091C918.145 195.547 925.071 202.527 933.49 207.233C941.909 211.939 951.482 214.181 961.116 213.703C970.749 213.225 980.054 210.046 987.966 204.53C995.878 199.014 1002.08 191.383 1005.86 182.509C1009.64 173.635 1010.84 163.877 1009.34 154.35C1019.98 149.919 1028.82 142.039 1034.44 131.977C1040.07 121.915 1042.14 110.254 1040.34 98.87H1040.3Z" fill="#2F80ED"/>
<path opacity="0.1" d="M944.66 81.81C939.04 91.8741 936.976 103.538 938.8 114.92C929.897 118.63 922.217 124.77 916.638 132.638C911.06 140.506 907.808 149.785 907.254 159.414C906.7 169.044 908.866 178.635 913.506 187.091C918.145 195.547 925.071 202.527 933.49 207.233C941.909 211.939 951.482 214.181 961.116 213.703C970.749 213.225 980.054 210.046 987.966 204.53C995.878 199.014 1002.08 191.383 1005.86 182.509C1009.64 173.635 1010.84 163.877 1009.34 154.35C1019.57 150.08 947.48 76.81 944.66 81.81Z" fill="black"/>
<path d="M1011.39 631.77H1023.5C1030.13 631.77 1036.49 634.404 1041.18 639.092C1045.87 643.781 1048.5 650.14 1048.5 656.77V693.88H986.39V656.77C986.39 650.14 989.024 643.781 993.712 639.092C998.401 634.404 1004.76 631.77 1011.39 631.77Z" fill="#434F5F"/>
<path opacity="0.1" d="M1011.39 631.77H1023.5C1030.13 631.77 1036.49 634.404 1041.18 639.092C1045.87 643.781 1048.5 650.14 1048.5 656.77V693.88H986.39V656.77C986.39 650.14 989.024 643.781 993.712 639.092C998.401 634.404 1004.76 631.77 1011.39 631.77Z" fill="black"/>
<path d="M1014.97 645.44C1017.71 645.44 1019.94 643.215 1019.94 640.47C1019.94 637.725 1017.71 635.5 1014.97 635.5C1012.23 635.5 1010 637.725 1010 640.47C1010 643.215 1012.23 645.44 1014.97 645.44Z" fill="#434F5F"/>
<path d="M1014.97 639.23C1017.71 639.23 1019.94 637.005 1019.94 634.26C1019.94 631.515 1017.71 629.29 1014.97 629.29C1012.23 629.29 1010 631.515 1010 634.26C1010 637.005 1012.23 639.23 1014.97 639.23Z" fill="#434F5F"/>
<path d="M1014.97 633.01C1017.71 633.01 1019.94 630.785 1019.94 628.04C1019.94 625.295 1017.71 623.07 1014.97 623.07C1012.23 623.07 1010 625.295 1010 628.04C1010 630.785 1012.23 633.01 1014.97 633.01Z" fill="#434F5F"/>
<path d="M1014.97 626.8C1017.71 626.8 1019.94 624.575 1019.94 621.83C1019.94 619.085 1017.71 616.86 1014.97 616.86C1012.23 616.86 1010 619.085 1010 621.83C1010 624.575 1012.23 626.8 1014.97 626.8Z" fill="#434F5F"/>
<path d="M1014.97 620.59C1017.71 620.59 1019.94 618.365 1019.94 615.62C1019.94 612.875 1017.71 610.65 1014.97 610.65C1012.23 610.65 1010 612.875 1010 615.62C1010 618.365 1012.23 620.59 1014.97 620.59Z" fill="#434F5F"/>
<path d="M1014.97 614.38C1017.71 614.38 1019.94 612.155 1019.94 609.41C1019.94 606.665 1017.71 604.44 1014.97 604.44C1012.23 604.44 1010 606.665 1010 609.41C1010 612.155 1012.23 614.38 1014.97 614.38Z" fill="#434F5F"/>
<path d="M1014.97 608.17C1017.71 608.17 1019.94 605.945 1019.94 603.2C1019.94 600.455 1017.71 598.23 1014.97 598.23C1012.23 598.23 1010 600.455 1010 603.2C1010 605.945 1012.23 608.17 1014.97 608.17Z" fill="#434F5F"/>
<path d="M1022.42 610.65C1025.16 610.65 1027.39 608.425 1027.39 605.68C1027.39 602.935 1025.16 600.71 1022.42 600.71C1019.68 600.71 1017.45 602.935 1017.45 605.68C1017.45 608.425 1019.68 610.65 1022.42 610.65Z" fill="#434F5F"/>
<path d="M1027.39 608.17C1030.13 608.17 1032.36 605.945 1032.36 603.2C1032.36 600.455 1030.13 598.23 1027.39 598.23C1024.65 598.23 1022.42 600.455 1022.42 603.2C1022.42 605.945 1024.65 608.17 1027.39 608.17Z" fill="#434F5F"/>
<path d="M1032.36 605.68C1035.1 605.68 1037.33 603.455 1037.33 600.71C1037.33 597.965 1035.1 595.74 1032.36 595.74C1029.62 595.74 1027.39 597.965 1027.39 600.71C1027.39 603.455 1029.62 605.68 1032.36 605.68Z" fill="#434F5F"/>
<path d="M1014.97 601.96C1017.71 601.96 1019.94 599.735 1019.94 596.99C1019.94 594.245 1017.71 592.02 1014.97 592.02C1012.23 592.02 1010 594.245 1010 596.99C1010 599.735 1012.23 601.96 1014.97 601.96Z" fill="#434F5F"/>
<path d="M1014.97 595.75C1017.71 595.75 1019.94 593.525 1019.94 590.78C1019.94 588.035 1017.71 585.81 1014.97 585.81C1012.23 585.81 1010 588.035 1010 590.78C1010 593.525 1012.23 595.75 1014.97 595.75Z" fill="#434F5F"/>
<path d="M1014.97 589.53C1017.71 589.53 1019.94 587.305 1019.94 584.56C1019.94 581.815 1017.71 579.59 1014.97 579.59C1012.23 579.59 1010 581.815 1010 584.56C1010 587.305 1012.23 589.53 1014.97 589.53Z" fill="#434F5F"/>
<path d="M1014.97 583.32C1017.71 583.32 1019.94 581.095 1019.94 578.35C1019.94 575.605 1017.71 573.38 1014.97 573.38C1012.23 573.38 1010 575.605 1010 578.35C1010 581.095 1012.23 583.32 1014.97 583.32Z" fill="#434F5F"/>
<path d="M1035.57 562.33C1034.34 562.51 1033.1 562.64 1031.85 562.72C1033 561.714 1034.07 560.617 1035.05 559.44C1034.36 557.352 1033.35 555.384 1032.05 553.61C1030.82 554.302 1029.46 554.735 1028.05 554.88C1026.82 555.06 1025.58 555.19 1024.34 555.27C1026.01 553.687 1027.59 552.018 1029.09 550.27C1025.51 547.021 1020.91 545.102 1016.08 544.836C1011.25 544.57 1006.48 545.972 1002.55 548.807C998.635 551.642 995.808 555.739 994.548 560.41C993.288 565.081 993.672 570.043 995.635 574.465C997.598 578.887 1001.02 582.5 1005.33 584.699C1009.64 586.898 1014.58 587.549 1019.31 586.543C1024.04 585.537 1028.28 582.935 1031.33 579.173C1034.37 575.411 1036.03 570.718 1036.02 565.88C1036.02 564.663 1035.91 563.448 1035.7 562.25L1035.57 562.33Z" fill="#2F80ED"/>
<path d="M1052.17 587.02C1050.9 587.799 1049.47 588.278 1047.99 588.42C1046.76 588.6 1045.52 588.73 1044.28 588.81C1045.6 587.628 1046.83 586.351 1047.96 584.99C1046.92 584.718 1045.85 584.577 1044.78 584.57C1041.82 584.565 1038.96 585.613 1036.71 587.527C1034.45 589.442 1032.95 592.097 1032.48 595.016C1032 597.935 1032.59 600.928 1034.12 603.457C1035.65 605.987 1038.03 607.887 1040.84 608.818C1043.65 609.749 1046.7 609.649 1049.44 608.536C1052.18 607.423 1054.43 605.371 1055.8 602.746C1057.16 600.122 1057.54 597.098 1056.88 594.216C1056.21 591.334 1054.55 588.783 1052.17 587.02Z" fill="#2F80ED"/>
<path d="M1007.51 610.65C1010.25 610.65 1012.48 608.425 1012.48 605.68C1012.48 602.935 1010.25 600.71 1007.51 600.71C1004.77 600.71 1002.54 602.935 1002.54 605.68C1002.54 608.425 1004.77 610.65 1007.51 610.65Z" fill="#434F5F"/>
<path d="M1002.54 608.17C1005.28 608.17 1007.51 605.945 1007.51 603.2C1007.51 600.455 1005.28 598.23 1002.54 598.23C999.795 598.23 997.57 600.455 997.57 603.2C997.57 605.945 999.795 608.17 1002.54 608.17Z" fill="#434F5F"/>
<path d="M997.58 605.68C1000.32 605.68 1002.55 603.455 1002.55 600.71C1002.55 597.965 1000.32 595.74 997.58 595.74C994.835 595.74 992.61 597.965 992.61 600.71C992.61 603.455 994.835 605.68 997.58 605.68Z" fill="#434F5F"/>
<path d="M977.8 587.02C979.069 587.799 980.498 588.278 981.98 588.42C983.21 588.6 984.45 588.73 985.69 588.81C984.372 587.628 983.142 586.351 982.01 584.99C983.048 584.718 984.117 584.577 985.19 584.57C988.148 584.565 991.01 585.613 993.265 587.527C995.519 589.442 997.018 592.097 997.492 595.016C997.966 597.935 997.385 600.928 995.852 603.457C994.319 605.987 991.935 607.887 989.128 608.818C986.32 609.749 983.273 609.649 980.533 608.536C977.793 607.423 975.538 605.371 974.175 602.746C972.811 600.122 972.427 597.098 973.091 594.216C973.755 591.334 975.425 588.783 977.8 587.02Z" fill="#2F80ED"/>
<path d="M1011.39 635.5H1023.5C1030.13 635.5 1036.49 638.134 1041.18 642.822C1045.87 647.511 1048.5 653.87 1048.5 660.5V693.37C1048.5 694.495 1048.05 695.573 1047.26 696.368C1046.46 697.163 1045.38 697.61 1044.26 697.61H990.63C989.505 697.61 988.427 697.163 987.632 696.368C986.837 695.573 986.39 694.495 986.39 693.37V660.5C986.39 653.87 989.024 647.511 993.712 642.822C998.401 638.134 1004.76 635.5 1011.39 635.5Z" fill="#434F5F"/>
<g opacity="0.1">
<path opacity="0.1" d="M1035.95 563.69C1035.45 564.233 1034.91 564.741 1034.34 565.21C1034.91 565.21 1035.48 565.12 1036.04 565.06C1036.02 564.6 1036 564.14 1035.95 563.69Z" fill="black"/>
<path opacity="0.1" d="M1026.89 557.75C1028.13 557.67 1029.37 557.54 1030.6 557.36C1031.71 557.224 1032.8 556.928 1033.83 556.48C1033.32 555.482 1032.74 554.522 1032.09 553.61C1031.47 553.989 1030.79 554.275 1030.09 554.46C1029.11 555.638 1028.04 556.738 1026.89 557.75Z" fill="black"/>
<path opacity="0.1" d="M996.33 568.42C996.323 564.629 997.338 560.906 999.269 557.643C1001.2 554.38 1003.97 551.699 1007.3 549.881C1010.63 548.062 1014.38 547.175 1018.17 547.313C1021.96 547.45 1025.64 548.606 1028.83 550.66L1029.15 550.32C1027.07 548.47 1024.64 547.049 1022.01 546.14C1019.38 545.231 1016.6 544.852 1013.82 545.024C1011.04 545.196 1008.32 545.917 1005.82 547.144C1003.33 548.371 1001.09 550.08 999.259 552.173C997.424 554.267 996.021 556.702 995.131 559.34C994.241 561.978 993.882 564.766 994.075 567.543C994.267 570.32 995.007 573.032 996.253 575.521C997.498 578.011 999.223 580.23 1001.33 582.05C998.096 578.246 996.323 573.413 996.33 568.42Z" fill="black"/>
</g>
<g opacity="0.1">
<path opacity="0.1" d="M1044.28 591.3C1045.52 591.21 1046.76 591.08 1047.99 590.9C1049.47 590.761 1050.9 590.286 1052.17 589.51C1053.58 590.542 1054.75 591.86 1055.61 593.376C1056.47 594.893 1057 596.574 1057.17 598.31C1057.22 597.872 1057.24 597.431 1057.24 596.99C1057.25 595.048 1056.8 593.131 1055.93 591.394C1055.06 589.657 1053.8 588.148 1052.24 586.99C1050.97 587.769 1049.54 588.248 1048.06 588.39L1047.06 588.51C1046.21 589.513 1045.28 590.446 1044.28 591.3Z" fill="black"/>
<path opacity="0.1" d="M1044.8 587.05C1045.22 587.05 1045.63 587.05 1046.04 587.14C1046.69 586.45 1047.33 585.71 1047.98 584.99C1046.94 584.718 1045.87 584.576 1044.8 584.57C1041.51 584.57 1038.35 585.879 1036.02 588.208C1033.69 590.537 1032.38 593.696 1032.38 596.99C1032.38 597.41 1032.38 597.83 1032.44 598.23C1032.75 595.167 1034.19 592.327 1036.47 590.262C1038.75 588.196 1041.72 587.052 1044.8 587.05Z" fill="black"/>
</g>
<g opacity="0.1">
<path opacity="0.1" d="M985.65 591.3C984.41 591.21 983.17 591.08 981.94 590.9C980.459 590.761 979.029 590.286 977.76 589.51C976.354 590.542 975.182 591.86 974.32 593.376C973.459 594.893 972.927 596.574 972.76 598.31C972.711 597.872 972.688 597.431 972.69 596.99C972.681 595.048 973.129 593.131 973.998 591.394C974.866 589.657 976.131 588.148 977.69 586.99C978.959 587.769 980.388 588.248 981.87 588.39L982.87 588.51C983.723 589.51 984.653 590.443 985.65 591.3Z" fill="black"/>
<path opacity="0.1" d="M985.15 587.05C984.73 587.05 984.32 587.05 983.91 587.14C983.26 586.45 982.62 585.71 981.97 584.99C983.008 584.718 984.077 584.576 985.15 584.57C988.444 584.57 991.603 585.879 993.932 588.208C996.261 590.537 997.57 593.696 997.57 596.99C997.57 597.41 997.57 597.83 997.51 598.23C997.2 595.167 995.765 592.327 993.481 590.262C991.198 588.196 988.229 587.052 985.15 587.05Z" fill="black"/>
</g>
<path d="M57 539H152.54C159.17 539 165.529 541.634 170.218 546.322C174.906 551.011 177.54 557.37 177.54 564V684.49H32V564C32 557.37 34.6339 551.011 39.3223 546.322C44.0107 541.634 50.3696 539 57 539Z" fill="#434F5F"/>
<path opacity="0.1" d="M57 539H152.54C159.17 539 165.529 541.634 170.218 546.322C174.906 551.011 177.54 557.37 177.54 564V684.49H32V564C32 557.37 34.6339 551.011 39.3223 546.322C44.0107 541.634 50.3696 539 57 539Z" fill="black"/>
<path d="M98.97 570.97C105.399 570.97 110.61 565.759 110.61 559.33C110.61 552.901 105.399 547.69 98.97 547.69C92.5414 547.69 87.33 552.901 87.33 559.33C87.33 565.759 92.5414 570.97 98.97 570.97Z" fill="#434F5F"/>
<path d="M98.97 556.42C105.399 556.42 110.61 551.209 110.61 544.78C110.61 538.352 105.399 533.14 98.97 533.14C92.5414 533.14 87.33 538.352 87.33 544.78C87.33 551.209 92.5414 556.42 98.97 556.42Z" fill="#434F5F"/>
<path d="M98.97 541.86C105.399 541.86 110.61 536.649 110.61 530.22C110.61 523.791 105.399 518.58 98.97 518.58C92.5414 518.58 87.33 523.791 87.33 530.22C87.33 536.649 92.5414 541.86 98.97 541.86Z" fill="#434F5F"/>
<path d="M98.97 527.31C105.399 527.31 110.61 522.099 110.61 515.67C110.61 509.241 105.399 504.03 98.97 504.03C92.5414 504.03 87.33 509.241 87.33 515.67C87.33 522.099 92.5414 527.31 98.97 527.31Z" fill="#434F5F"/>
<path d="M98.97 512.75C105.399 512.75 110.61 507.539 110.61 501.11C110.61 494.681 105.399 489.47 98.97 489.47C92.5414 489.47 87.33 494.681 87.33 501.11C87.33 507.539 92.5414 512.75 98.97 512.75Z" fill="#434F5F"/>
<path d="M98.97 498.2C105.399 498.2 110.61 492.989 110.61 486.56C110.61 480.131 105.399 474.92 98.97 474.92C92.5414 474.92 87.33 480.131 87.33 486.56C87.33 492.989 92.5414 498.2 98.97 498.2Z" fill="#434F5F"/>
<path d="M98.97 483.65C105.399 483.65 110.61 478.439 110.61 472.01C110.61 465.582 105.399 460.37 98.97 460.37C92.5414 460.37 87.33 465.582 87.33 472.01C87.33 478.439 92.5414 483.65 98.97 483.65Z" fill="#434F5F"/>
<path d="M116.43 489.47C122.859 489.47 128.07 484.259 128.07 477.83C128.07 471.401 122.859 466.19 116.43 466.19C110.001 466.19 104.79 471.401 104.79 477.83C104.79 484.259 110.001 489.47 116.43 489.47Z" fill="#434F5F"/>
<path d="M128.07 483.65C134.499 483.65 139.71 478.439 139.71 472.01C139.71 465.582 134.499 460.37 128.07 460.37C121.641 460.37 116.43 465.582 116.43 472.01C116.43 478.439 121.641 483.65 128.07 483.65Z" fill="#434F5F"/>
<path d="M139.72 477.82C146.149 477.82 151.36 472.609 151.36 466.18C151.36 459.751 146.149 454.54 139.72 454.54C133.291 454.54 128.08 459.751 128.08 466.18C128.08 472.609 133.291 477.82 139.72 477.82Z" fill="#434F5F"/>
<path d="M98.97 469.09C105.399 469.09 110.61 463.879 110.61 457.45C110.61 451.021 105.399 445.81 98.97 445.81C92.5414 445.81 87.33 451.021 87.33 457.45C87.33 463.879 92.5414 469.09 98.97 469.09Z" fill="#434F5F"/>
<path d="M98.97 454.54C105.399 454.54 110.61 449.329 110.61 442.9C110.61 436.471 105.399 431.26 98.97 431.26C92.5414 431.26 87.33 436.471 87.33 442.9C87.33 449.329 92.5414 454.54 98.97 454.54Z" fill="#434F5F"/>
<path d="M98.97 439.98C105.399 439.98 110.61 434.769 110.61 428.34C110.61 421.911 105.399 416.7 98.97 416.7C92.5414 416.7 87.33 421.911 87.33 428.34C87.33 434.769 92.5414 439.98 98.97 439.98Z" fill="#434F5F"/>
<path d="M98.97 425.43C105.399 425.43 110.61 420.219 110.61 413.79C110.61 407.361 105.399 402.15 98.97 402.15C92.5414 402.15 87.33 407.361 87.33 413.79C87.33 420.219 92.5414 425.43 98.97 425.43Z" fill="#434F5F"/>
<path d="M147.24 376.24C144.353 376.66 141.453 376.967 138.54 377.16C141.236 374.799 143.741 372.227 146.03 369.47C144.442 364.583 142.1 359.974 139.09 355.81C136.226 357.447 133.051 358.468 129.77 358.81C126.89 359.23 123.98 359.54 121.07 359.74C124.9 356.64 128.45 351.95 132.2 348.14C123.506 340.244 112.293 335.69 100.555 335.289C88.8184 334.888 77.3197 338.665 68.1068 345.948C58.8939 353.231 52.5648 363.547 50.2462 375.06C47.9277 386.573 49.7703 398.535 55.446 408.816C61.1216 419.097 70.262 427.031 81.2395 431.204C92.2171 435.377 104.319 435.518 115.392 431.603C126.464 427.689 135.787 419.971 141.702 409.825C147.617 399.679 149.739 387.764 147.69 376.2L147.24 376.24Z" fill="#2F80ED"/>
<path d="M186.14 434.1C183.4 436.03 179.76 436.86 176.35 437.36C173.46 437.79 170.56 438.09 167.65 438.29C170.65 435.88 173.41 432.52 176.27 429.35C169.263 427.491 161.814 428.311 155.38 431.65C148.945 434.989 143.987 440.608 141.474 447.408C138.961 454.208 139.074 461.701 141.791 468.422C144.508 475.144 149.633 480.61 156.166 483.754C162.698 486.898 170.168 487.493 177.116 485.423C184.064 483.353 189.99 478.766 193.736 472.56C197.483 466.354 198.781 458.973 197.376 451.861C195.971 444.749 191.965 438.416 186.14 434.1Z" fill="#2F80ED"/>
<path d="M81.5 489.47C87.9286 489.47 93.14 484.259 93.14 477.83C93.14 471.401 87.9286 466.19 81.5 466.19C75.0714 466.19 69.86 471.401 69.86 477.83C69.86 484.259 75.0714 489.47 81.5 489.47Z" fill="#434F5F"/>
<path d="M69.86 483.65C76.2886 483.65 81.5 478.439 81.5 472.01C81.5 465.582 76.2886 460.37 69.86 460.37C63.4314 460.37 58.22 465.582 58.22 472.01C58.22 478.439 63.4314 483.65 69.86 483.65Z" fill="#434F5F"/>
<path d="M58.22 477.82C64.6486 477.82 69.86 472.609 69.86 466.18C69.86 459.751 64.6486 454.54 58.22 454.54C51.7914 454.54 46.58 459.751 46.58 466.18C46.58 472.609 51.7914 477.82 58.22 477.82Z" fill="#434F5F"/>
<path d="M11.8001 434.1C14.5401 436.03 18.1801 436.86 21.6001 437.36C24.4801 437.79 27.3801 438.09 30.2901 438.29C27.2901 435.88 24.5301 432.52 21.6701 429.35C28.6771 427.491 36.1257 428.311 42.5603 431.65C48.995 434.989 53.9532 440.608 56.4661 447.408C58.979 454.208 58.8659 461.701 56.1491 468.422C53.4322 475.144 48.3067 480.61 41.7743 483.754C35.2419 486.898 27.7719 487.493 20.8242 485.423C13.8764 483.353 7.95024 478.766 4.20367 472.56C0.457095 466.354 -0.840608 458.973 0.564152 451.861C1.96891 444.749 5.97518 438.416 11.8001 434.1Z" fill="#2F80ED"/>
<path d="M57 547.69H152.54C159.17 547.69 165.529 550.324 170.218 555.012C174.906 559.701 177.54 566.06 177.54 572.69V689C177.54 690.124 177.093 691.203 176.298 691.998C175.503 692.793 174.425 693.24 173.3 693.24H36.26C35.7015 693.243 35.148 693.135 34.6313 692.923C34.1145 692.711 33.6448 692.399 33.2489 692.005C32.8531 691.611 32.539 691.143 32.3247 690.627C32.1103 690.111 32 689.558 32 689V572.69C32 566.06 34.6339 559.701 39.3223 555.012C44.0107 550.324 50.3696 547.69 57 547.69Z" fill="#434F5F"/>
<g opacity="0.1">
<path opacity="0.1" d="M148.12 379.42C146.95 380.692 145.694 381.881 144.36 382.98C145.69 382.89 147.03 382.77 148.36 382.64C148.31 381.56 148.24 380.48 148.12 379.42Z" fill="black"/>
<path opacity="0.1" d="M126.9 365.52C129.81 365.32 132.71 365.02 135.59 364.59C138.199 364.286 140.751 363.612 143.17 362.59C141.987 360.24 140.623 357.987 139.09 355.85C137.644 356.743 136.074 357.417 134.43 357.85C132.123 360.598 129.605 363.162 126.9 365.52Z" fill="black"/>
<path opacity="0.1" d="M55.3 390.51C55.2825 381.627 57.6611 372.903 62.1852 365.258C66.7094 357.613 73.2117 351.33 81.0071 347.071C88.8025 342.811 97.6025 340.733 106.48 341.055C115.357 341.377 123.984 344.087 131.45 348.9C131.7 348.64 131.95 348.35 132.2 348.1C127.336 343.706 121.647 340.322 115.463 338.147C109.28 335.972 102.725 335.048 96.1813 335.429C89.6374 335.811 83.2347 337.489 77.3455 340.368C71.4564 343.247 66.1985 347.268 61.8778 352.197C57.557 357.126 54.2596 362.866 52.1774 369.081C50.0953 375.297 49.2699 381.864 49.7494 388.402C50.2288 394.939 52.0035 401.316 54.9702 407.161C57.9369 413.007 62.0363 418.204 67.03 422.45C59.4466 413.537 55.2878 402.213 55.3 390.51Z" fill="black"/>
</g>
<g opacity="0.1">
<path opacity="0.1" d="M167.65 444.11C170.557 443.923 173.457 443.613 176.35 443.18C179.76 442.69 183.35 441.86 186.14 439.92C189.421 442.344 192.156 445.432 194.164 448.983C196.173 452.534 197.412 456.468 197.8 460.53C197.9 459.53 197.96 458.53 197.96 457.46C197.963 452.915 196.897 448.432 194.849 444.375C192.801 440.317 189.828 436.797 186.17 434.1C183.43 436.03 179.79 436.86 176.38 437.36C175.61 437.47 174.85 437.56 174.09 437.65C172.117 439.97 169.964 442.13 167.65 444.11Z" fill="black"/>
<path opacity="0.1" d="M168.8 434.17C169.776 434.186 170.751 434.253 171.72 434.37C173.24 432.75 174.72 431.03 176.25 429.37C171.942 428.208 167.425 428.056 163.049 428.926C158.673 429.795 154.557 431.662 151.02 434.382C147.484 437.102 144.623 440.601 142.659 444.607C140.696 448.613 139.683 453.019 139.7 457.48C139.7 458.48 139.75 459.48 139.84 460.39C140.557 453.207 143.917 446.546 149.269 441.701C154.62 436.855 161.581 434.171 168.8 434.17Z" fill="black"/>
</g>
<g opacity="0.1">
<path opacity="0.1" d="M30.28 444.11C27.3733 443.923 24.4767 443.613 21.59 443.18C18.17 442.69 14.53 441.86 11.79 439.92C8.51415 442.347 5.78571 445.437 3.78203 448.987C1.77835 452.538 0.544271 456.471 0.160002 460.53C0.0600021 459.53 2.2163e-06 458.53 2.2163e-06 457.46C-0.00177496 452.914 1.06527 448.431 3.11502 444.373C5.16477 440.315 8.1398 436.796 11.8 434.1C14.54 436.03 18.18 436.86 21.6 437.36C22.36 437.47 23.12 437.56 23.88 437.65C25.8424 439.966 27.9822 442.126 30.28 444.11Z" fill="black"/>
<path opacity="0.1" d="M29.11 434.17C28.1339 434.186 27.1592 434.253 26.19 434.37C24.67 432.75 23.19 431.03 21.66 429.37C25.9676 428.208 30.4851 428.056 34.861 428.926C39.2369 429.795 43.3532 431.662 46.8897 434.382C50.4262 437.102 53.2875 440.601 55.2509 444.607C57.2143 448.613 58.227 453.019 58.21 457.48C58.21 458.48 58.21 459.48 58.07 460.39C57.3533 453.207 53.9931 446.546 48.6415 441.701C43.29 436.855 36.3291 434.171 29.11 434.17Z" fill="black"/>
</g>
<path d="M679.98 696.14L484.98 693.64L485.55 688.64L494.98 606.14H666.23L678.83 688.64L679.79 694.89L679.98 696.14Z" fill="#D0D2D5"/>
<path opacity="0.1" d="M679.79 694.89H582.48L484.98 693.64L485.55 688.64H678.83L679.79 694.89Z" fill="black"/>
<path d="M711.23 689.89H452.48V696.14H711.23V689.89Z" fill="#D0D2D5"/>
<path d="M958.1 110.62C958.121 106.304 956.428 102.156 953.392 99.0883C950.356 96.0205 946.226 94.2838 941.91 94.26H219.3C217.162 94.2705 215.047 94.702 213.076 95.5298C211.105 96.3577 209.316 97.5657 207.812 99.0848C206.307 100.604 205.117 102.405 204.309 104.384C203.5 106.363 203.09 108.482 203.1 110.62V548.62H958.1V110.62Z" fill="#49525F"/>
<path d="M203.1 544.26V595.57C203.093 597.701 203.508 599.813 204.319 601.783C205.13 603.754 206.323 605.545 207.828 607.054C209.333 608.563 211.121 609.76 213.09 610.576C215.058 611.392 217.169 611.811 219.3 611.81H941.91C946.204 611.81 950.322 610.104 953.358 607.068C956.394 604.032 958.1 599.914 958.1 595.62V544.26H203.1Z" fill="#D0D2D5"/>
<path opacity="0.1" d="M930.6 121.76H234.35V515.51H930.6V121.76Z" fill="#2F80ED"/>
<path d="M584.35 592.3C586.907 592.302 589.43 591.723 591.731 590.607C594.031 589.492 596.048 587.869 597.63 585.86C598.108 585.245 598.545 584.601 598.94 583.93L589.68 582.41L599.68 582.48C600.644 580.392 601.17 578.128 601.225 575.828C601.28 573.529 600.863 571.242 600 569.11L586.57 576.11L598.96 567.01C597.823 564.969 596.274 563.187 594.412 561.776C592.55 560.365 590.415 559.357 588.143 558.814C585.871 558.271 583.511 558.206 581.212 558.623C578.913 559.04 576.726 559.93 574.79 561.237C572.853 562.543 571.209 564.238 569.961 566.213C568.713 568.188 567.89 570.401 567.542 572.711C567.194 575.021 567.33 577.378 567.941 579.633C568.551 581.888 569.624 583.991 571.09 585.81C572.664 587.826 574.675 589.458 576.972 590.582C579.27 591.707 581.792 592.294 584.35 592.3Z" fill="#2F80ED"/>
<path opacity="0.1" d="M601.23 611.76L679.02 689.89L667.09 611.76H601.23Z" fill="black"/>
<path d="M791.23 175.38H253.73V460.79H791.23V175.38Z" fill="white"/>
<path opacity="0.1" d="M433.63 249.78H283.71V257.55H433.63V249.78Z" fill="#2F80ED"/>
<path opacity="0.1" d="M311.48 208.69H297.04V249.78H311.48V208.69Z" fill="#2F80ED"/>
<path opacity="0.1" d="M332.58 208.69H318.14V249.78H332.58V208.69Z" fill="#2F80ED"/>
<path opacity="0.1" d="M353.68 208.69H339.24V249.78H353.68V208.69Z" fill="#2F80ED"/>
<path opacity="0.1" d="M374.78 208.69H360.34V249.78H374.78V208.69Z" fill="#2F80ED"/>
<path opacity="0.1" d="M395.88 208.69H381.44V249.78H395.88V208.69Z" fill="#2F80ED"/>
<path opacity="0.1" d="M416.98 208.69H402.54V249.78H416.98V208.69Z" fill="#2F80ED"/>
<path opacity="0.1" d="M311.48 216.47H297.04V220.91H311.48V216.47Z" fill="#2F80ED"/>
<path opacity="0.1" d="M332.58 216.47H318.14V220.91H332.58V216.47Z" fill="#2F80ED"/>
<path opacity="0.1" d="M353.68 216.47H339.24V220.91H353.68V216.47Z" fill="#2F80ED"/>
<path opacity="0.1" d="M374.78 216.47H360.34V220.91H374.78V216.47Z" fill="#2F80ED"/>
<path opacity="0.1" d="M395.88 216.47H381.44V220.91H395.88V216.47Z" fill="#2F80ED"/>
<path opacity="0.1" d="M416.98 216.47H402.54V220.91H416.98V216.47Z" fill="#2F80ED"/>
<path opacity="0.1" d="M311.48 236.46H297.04V240.9H311.48V236.46Z" fill="#2F80ED"/>
<path opacity="0.1" d="M332.58 236.46H318.14V240.9H332.58V236.46Z" fill="#2F80ED"/>
<path opacity="0.1" d="M353.68 236.46H339.24V240.9H353.68V236.46Z" fill="#2F80ED"/>
<path opacity="0.1" d="M374.78 236.46H360.34V240.9H374.78V236.46Z" fill="#2F80ED"/>
<path opacity="0.1" d="M395.88 236.46H381.44V240.9H395.88V236.46Z" fill="#2F80ED"/>
<path opacity="0.1" d="M416.98 236.46H402.54V240.9H416.98V236.46Z" fill="#2F80ED"/>
<path opacity="0.1" d="M762.35 269.77H612.43V277.54H762.35V269.77Z" fill="#2F80ED"/>
<path opacity="0.1" d="M640.2 228.68H625.76V269.77H640.2V228.68Z" fill="#2F80ED"/>
<path opacity="0.1" d="M661.3 228.68H646.86V269.77H661.3V228.68Z" fill="#2F80ED"/>
<path opacity="0.1" d="M682.4 228.68H667.96V269.77H682.4V228.68Z" fill="#2F80ED"/>
<path opacity="0.1" d="M703.5 228.68H689.06V269.77H703.5V228.68Z" fill="#2F80ED"/>
<path opacity="0.1" d="M724.6 228.68H710.16V269.77H724.6V228.68Z" fill="#2F80ED"/>
<path opacity="0.1" d="M745.7 228.68H731.26V269.77H745.7V228.68Z" fill="#2F80ED"/>
<path opacity="0.1" d="M640.2 236.46H625.76V240.9H640.2V236.46Z" fill="#2F80ED"/>
<path opacity="0.1" d="M661.3 236.46H646.86V240.9H661.3V236.46Z" fill="#2F80ED"/>
<path opacity="0.1" d="M682.4 236.46H667.96V240.9H682.4V236.46Z" fill="#2F80ED"/>
<path opacity="0.1" d="M703.5 236.46H689.06V240.9H703.5V236.46Z" fill="#2F80ED"/>
<path opacity="0.1" d="M724.6 236.46H710.16V240.9H724.6V236.46Z" fill="#2F80ED"/>
<path opacity="0.1" d="M745.7 236.46H731.26V240.9H745.7V236.46Z" fill="#2F80ED"/>
<path opacity="0.1" d="M640.2 256.45H625.76V260.89H640.2V256.45Z" fill="#2F80ED"/>
<path opacity="0.1" d="M661.3 256.45H646.86V260.89H661.3V256.45Z" fill="#2F80ED"/>
<path opacity="0.1" d="M682.4 256.45H667.96V260.89H682.4V256.45Z" fill="#2F80ED"/>
<path opacity="0.1" d="M703.5 256.45H689.06V260.89H703.5V256.45Z" fill="#2F80ED"/>
<path opacity="0.1" d="M724.6 256.45H710.16V260.89H724.6V256.45Z" fill="#2F80ED"/>
<path opacity="0.1" d="M745.7 256.45H731.26V260.89H745.7V256.45Z" fill="#2F80ED"/>
<path opacity="0.1" d="M762.35 326.41H612.43V334.18H762.35V326.41Z" fill="#2F80ED"/>
<path opacity="0.1" d="M640.2 285.32H625.76V326.41H640.2V285.32Z" fill="#2F80ED"/>
<path opacity="0.1" d="M661.3 285.32H646.86V326.41H661.3V285.32Z" fill="#2F80ED"/>
<path opacity="0.1" d="M682.4 285.32H667.96V326.41H682.4V285.32Z" fill="#2F80ED"/>
<path opacity="0.1" d="M703.5 285.32H689.06V326.41H703.5V285.32Z" fill="#2F80ED"/>
<path opacity="0.1" d="M724.6 285.32H710.16V326.41H724.6V285.32Z" fill="#2F80ED"/>
<path opacity="0.1" d="M745.7 285.32H731.26V326.41H745.7V285.32Z" fill="#2F80ED"/>
<path opacity="0.1" d="M640.2 293.09H625.76V297.53H640.2V293.09Z" fill="#2F80ED"/>
<path opacity="0.1" d="M661.3 293.09H646.86V297.53H661.3V293.09Z" fill="#2F80ED"/>
<path opacity="0.1" d="M682.4 293.09H667.96V297.53H682.4V293.09Z" fill="#2F80ED"/>
<path opacity="0.1" d="M703.5 293.09H689.06V297.53H703.5V293.09Z" fill="#2F80ED"/>
<path opacity="0.1" d="M724.6 293.09H710.16V297.53H724.6V293.09Z" fill="#2F80ED"/>
<path opacity="0.1" d="M745.7 293.09H731.26V297.53H745.7V293.09Z" fill="#2F80ED"/>
<path opacity="0.1" d="M640.2 313.08H625.76V317.52H640.2V313.08Z" fill="#2F80ED"/>
<path opacity="0.1" d="M661.3 313.08H646.86V317.52H661.3V313.08Z" fill="#2F80ED"/>
<path opacity="0.1" d="M682.4 313.08H667.96V317.52H682.4V313.08Z" fill="#2F80ED"/>
<path opacity="0.1" d="M703.5 313.08H689.06V317.52H703.5V313.08Z" fill="#2F80ED"/>
<path opacity="0.1" d="M724.6 313.08H710.16V317.52H724.6V313.08Z" fill="#2F80ED"/>
<path opacity="0.1" d="M745.7 313.08H731.26V317.52H745.7V313.08Z" fill="#2F80ED"/>
<path opacity="0.1" d="M375.66 337.66C374.538 336.232 373.516 334.728 372.6 333.16L394.19 329.62L370.8 329.81C368.561 324.937 367.34 319.658 367.211 314.297C367.082 308.936 368.048 303.605 370.05 298.63L401.37 314.88L372.49 293.65C375.188 288.963 378.824 284.882 383.17 281.663C387.516 278.444 392.479 276.155 397.749 274.939C403.019 273.724 408.483 273.608 413.8 274.598C419.117 275.589 424.172 277.665 428.651 280.697C433.13 283.728 436.935 287.651 439.83 292.219C442.725 296.787 444.648 301.903 445.477 307.248C446.306 312.592 446.025 318.05 444.651 323.281C443.277 328.512 440.839 333.403 437.49 337.65C439.246 339.868 440.759 342.268 442 344.81L414 359.36L443.87 349.36C445.97 355.559 446.49 362.183 445.383 368.634C444.276 375.084 441.577 381.156 437.53 386.3C442.097 392.104 444.938 399.076 445.729 406.419C446.52 413.761 445.228 421.178 442.002 427.822C438.776 434.465 433.746 440.066 427.486 443.985C421.226 447.904 413.99 449.982 406.605 449.982C399.22 449.982 391.984 447.904 385.724 443.985C379.465 440.066 374.434 434.465 371.208 427.822C367.982 421.178 366.69 413.761 367.481 406.419C368.272 399.076 371.113 392.104 375.68 386.3C370.226 379.365 367.261 370.798 367.261 361.975C367.261 353.152 370.226 344.585 375.68 337.65L375.66 337.66Z" fill="#2F80ED"/>
<path opacity="0.1" d="M445.93 361.99C445.942 370.813 442.975 379.383 437.51 386.31C442.077 392.114 444.918 399.086 445.709 406.428C446.5 413.771 445.208 421.188 441.982 427.832C438.756 434.475 433.726 440.076 427.466 443.995C421.206 447.914 413.97 449.992 406.585 449.992C399.2 449.992 391.964 447.914 385.704 443.995C379.444 440.076 374.414 434.475 371.188 427.832C367.962 421.188 366.67 413.771 367.461 406.428C368.252 399.086 371.093 392.114 375.66 386.31C370.39 379.62 445.93 357.57 445.93 361.99Z" fill="#2F80ED"/>
<path opacity="0.2" d="M412.9 460.46C412.97 460.57 413.02 460.68 413.09 460.79H399.73C399.8 460.68 399.85 460.57 399.92 460.46C398.773 458.458 398.179 456.187 398.2 453.88C398.198 452.301 398.472 450.734 399.01 449.25C399.75 449.37 400.67 449.5 401.73 449.61C404.829 449.92 407.951 449.92 411.05 449.61C411.93 449.52 412.86 449.39 413.8 449.25C413.801 449.273 413.801 449.297 413.8 449.32C414.327 450.782 414.594 452.326 414.59 453.88C414.62 456.184 414.037 458.455 412.9 460.46Z" fill="#434F5F"/>
<path opacity="0.1" d="M364.89 460.81H290.59C290.42 460.38 290.27 459.93 290.14 459.49C287.52 451.064 287.827 442 291.01 433.77C283.749 428.755 278.385 421.443 275.78 413.011C273.176 404.579 273.482 395.517 276.65 387.28C275.156 386.243 273.732 385.107 272.39 383.88L291.97 374.12L269.72 381.18C266.139 377.185 263.412 372.5 261.707 367.414C260.001 362.328 259.352 356.946 259.8 351.6L294.52 357.87L260.66 346.11C261.857 340.836 264.128 335.865 267.332 331.507C270.537 327.15 274.605 323.5 279.282 320.785C283.96 318.07 289.147 316.349 294.52 315.729C299.893 315.108 305.336 315.602 310.51 317.179C315.683 318.756 320.476 321.383 324.589 324.896C328.701 328.408 332.046 332.73 334.414 337.593C336.781 342.456 338.121 347.755 338.349 353.158C338.577 358.562 337.689 363.955 335.74 369C338.066 370.612 340.214 372.466 342.15 374.53L319.67 396.71L345.26 378.31C349.095 383.616 351.546 389.795 352.391 396.287C353.237 402.779 352.449 409.379 350.1 415.49C357.183 420.386 362.465 427.47 365.137 435.656C367.808 443.842 367.721 452.678 364.89 460.81Z" fill="#2F80ED"/>
<path opacity="0.1" d="M364.89 460.81H290.59C290.42 460.38 290.27 459.93 290.14 459.49C287.52 451.064 287.827 442 291.01 433.77C284.01 428.92 349.67 385.56 351.01 389.77C353.619 398.201 353.313 407.265 350.14 415.5C357.214 420.401 362.487 427.486 365.151 435.669C367.815 443.853 367.723 452.684 364.89 460.81Z" fill="#2F80ED"/>
<path opacity="0.1" d="M701.34 407.5C696.827 415.082 689.885 420.917 681.64 424.06C681.992 426.87 682.049 429.708 681.81 432.53L650.29 430.64L681.07 437.37C679.036 446.775 673.633 455.111 665.88 460.81H622.98V461.92H579.31C579.4 461.54 579.49 461.17 579.59 460.81C581.195 454.778 584.207 449.212 588.379 444.569C592.55 439.926 597.763 436.338 603.59 434.1C602.475 425.344 604.333 416.468 608.866 408.895C613.4 401.322 620.346 395.492 628.59 392.34C628.355 390.54 628.245 388.725 628.26 386.91L648.61 394.91L628.49 383.09C629.065 377.763 630.719 372.61 633.351 367.944C635.983 363.278 639.539 359.197 643.8 355.95L662.34 385.95L648.45 352.95C656.017 348.741 664.761 347.146 673.327 348.413C681.893 349.68 689.801 353.737 695.826 359.956C701.851 366.175 705.656 374.207 706.652 382.809C707.647 391.41 705.776 400.1 701.33 407.53L701.34 407.5Z" fill="#2F80ED"/>
<path opacity="0.1" d="M676.37 449.26C673.692 453.781 670.123 457.71 665.88 460.81H622.98V461.92H579.31C579.4 461.54 579.49 461.17 579.59 460.81C581.195 454.778 584.207 449.212 588.379 444.569C592.55 439.926 597.763 436.338 603.59 434.1C603.22 431.23 611.7 431.62 622.99 433.52C645.06 437.22 677.87 446.75 676.37 449.26Z" fill="#2F80ED"/>
<path d="M490.45 344.27C490.45 344.27 495.8 373.44 483.8 382.95C471.8 392.46 493.94 449.53 530.72 442.88C567.5 436.23 582.4 388.34 582.4 388.34C582.4 388.34 545.62 380.74 559.25 342.06L490.45 344.27Z" fill="#EFB7B9"/>
<path opacity="0.1" d="M490.45 344.27C490.45 344.27 495.8 373.44 483.8 382.95C471.8 392.46 493.94 449.53 530.72 442.88C567.5 436.23 582.4 388.34 582.4 388.34C582.4 388.34 545.62 380.74 559.25 342.06L490.45 344.27Z" fill="black"/>
<path d="M522.95 365.67C556.568 365.67 583.82 338.417 583.82 304.8C583.82 271.182 556.568 243.93 522.95 243.93C489.332 243.93 462.08 271.182 462.08 304.8C462.08 338.417 489.332 365.67 522.95 365.67Z" fill="#EFB7B9"/>
<path d="M622.98 420.52V461.9H421.98V422.41C421.982 417.401 423.458 412.503 426.225 408.328C428.993 404.152 432.928 400.884 437.54 398.93L443.31 396.48C457.89 390.27 475.6 382.56 481.39 379.35C482.024 379.034 482.621 378.648 483.17 378.2C486.34 375.03 485.71 379.15 485.71 379.15C485.71 379.15 485.62 379.93 485.56 381.29C485.22 390.6 486.56 427.22 529.46 424.17C571.32 421.17 573.16 392.93 572.78 384.62C572.756 383.85 572.689 383.082 572.58 382.32C572.58 382.1 576.18 383.32 581.06 385.08C589.83 388.31 602.72 393.51 606.19 395.96C607.27 396.71 608.58 397.51 610 398.3C613.953 400.506 617.243 403.73 619.529 407.638C621.815 411.545 623.014 415.993 623 420.52H622.98Z" fill="#2F80ED"/>
<path opacity="0.1" d="M581.05 385.08C577.51 401.5 566.39 432.26 526.28 433.08C483.57 433.92 481.11 391.44 481.37 379.39C482.009 379.074 482.61 378.684 483.16 378.23C486.33 375.06 485.7 379.18 485.7 379.18C485.7 379.18 480.31 427.69 529.45 424.18C578.59 420.67 572.57 382.33 572.57 382.33C572.57 382.1 576.17 383.28 581.05 385.08Z" fill="black"/>
<path d="M450.9 307.81C454.9 306.51 459.67 308.71 461.9 311.81C464.13 314.91 464.44 318.66 464.71 322.25C467.36 322.81 468.85 319.81 469.09 317.56C470.09 308.35 470.14 298.97 473.23 290.09C476.32 281.21 483.07 272.61 493.45 269.19C496.98 267.965 500.752 267.605 504.45 268.14C506.64 268.51 508.71 269.27 510.9 269.63C518.47 270.88 526.72 267.29 533.83 269.79C538.28 271.36 541.15 274.99 543.19 278.63C544.099 280.584 545.33 282.372 546.83 283.92C549.83 286.62 554.59 287.33 558.91 288.18C563.23 289.03 567.97 290.49 569.82 293.83C571.49 296.83 570.26 300.33 569.7 303.61C568.845 308.778 569.713 314.084 572.17 318.71C572.97 320.23 574.59 321.95 576.5 321.46C577.369 321.167 578.104 320.57 578.57 319.78C583.57 312.78 583.41 303.7 589.64 297.45C591.73 295.36 594.42 293.72 596.45 291.59C597.986 290.039 599.113 288.13 599.729 286.035C600.345 283.941 600.432 281.726 599.98 279.59C598.86 274.78 594.98 270.77 591.91 266.59C587.874 261.234 584.935 255.134 583.26 248.64C582.965 247.888 582.965 247.052 583.26 246.3C583.848 245.535 584.604 244.915 585.47 244.49C587.167 243.365 588.395 241.659 588.923 239.692C589.452 237.726 589.244 235.634 588.34 233.81C586.6 230.18 582.69 227.49 578.4 225.87C574.11 224.25 569.4 223.56 564.74 222.87C561.68 223.32 558.09 221.57 557.14 219.12C556.72 218.03 556.72 216.85 556.29 215.76C555.46 213.67 553.07 212.19 550.5 211.68C547.886 211.252 545.208 211.44 542.68 212.23C539.8 213.04 536.46 214.23 533.95 212.85C532.63 212.1 531.89 210.74 530.47 210.13C527.59 208.9 524.55 211.38 522.47 213.43C520.452 215.566 517.981 217.223 515.24 218.28C512.35 219.28 508.79 219.28 506.3 217.69C504.3 216.42 503.3 214.38 501.71 212.76C499.1 210.09 494.97 208.64 490.85 208.31C486.718 208.093 482.578 208.545 478.59 209.65C470.977 211.494 463.703 214.532 457.04 218.65C453.71 220.74 450.52 223.18 448.78 226.33C447.544 228.786 446.907 231.5 446.92 234.25C446.61 242.86 449.47 251.94 456.92 257.97C452.38 259.87 450.84 264.52 449.78 268.65C448.08 275.23 446.37 281.93 447.01 288.65C447.33 292.12 448.28 295.59 447.77 299.04C447.53 300.71 446.95 302.35 447.09 304.04C447.276 304.977 447.738 305.837 448.417 306.509C449.096 307.181 449.961 307.634 450.9 307.81Z" fill="#465871"/>
<g opacity="0.1">
<path opacity="0.1" d="M599.1 276.99C598.441 278.415 597.553 279.723 596.47 280.86C594.47 282.99 591.75 284.63 589.66 286.73C583.43 292.97 583.56 302.08 578.59 309.06C578.124 309.848 577.389 310.441 576.52 310.73C574.61 311.22 572.99 309.5 572.19 307.98C571.218 306.131 570.489 304.165 570.02 302.13C569.913 302.637 569.813 303.147 569.72 303.66C568.865 308.828 569.733 314.134 572.19 318.76C572.99 320.28 574.61 322 576.52 321.51C577.389 321.217 578.124 320.62 578.59 319.83C583.59 312.83 583.43 303.75 589.66 297.5C591.75 295.41 594.44 293.77 596.47 291.64C598.006 290.089 599.133 288.18 599.749 286.085C600.365 283.991 600.452 281.776 600 279.64C599.787 278.73 599.485 277.842 599.1 276.99Z" fill="black"/>
<path opacity="0.1" d="M585.51 233.81C584.642 234.228 583.885 234.845 583.3 235.61C583.005 236.362 583.005 237.198 583.3 237.95C583.877 240.217 584.615 242.439 585.51 244.6C587.227 243.465 588.466 241.737 588.988 239.746C589.51 237.755 589.279 235.641 588.34 233.81C588.059 233.214 587.724 232.645 587.34 232.11C586.819 232.765 586.202 233.338 585.51 233.81Z" fill="black"/>
<path opacity="0.1" d="M456.91 247.29C451.753 243.026 448.352 237.008 447.36 230.39C447.102 231.709 446.954 233.047 446.92 234.39C446.599 240.744 448.278 247.039 451.72 252.39C452.767 250.111 454.613 248.296 456.91 247.29Z" fill="black"/>
<path opacity="0.1" d="M569.72 292.88C570.28 289.6 571.51 286.11 569.84 283.1C567.99 279.76 563.26 278.29 558.93 277.45C554.6 276.61 549.87 275.89 546.85 273.19C545.35 271.642 544.119 269.854 543.21 267.9C541.21 264.26 538.3 260.63 533.85 259.06C526.74 256.56 518.49 260.15 510.92 258.9C508.73 258.54 506.66 257.78 504.47 257.41C500.776 256.859 497.004 257.202 493.47 258.41C483.09 261.83 476.34 270.41 473.25 279.31C470.16 288.21 470.09 297.57 469.11 306.78C468.87 309.03 467.38 312.03 464.73 311.47C464.46 307.88 464.13 304.13 461.92 301.03C459.71 297.93 454.99 295.72 450.92 297.03C449.688 296.752 448.596 296.042 447.84 295.03C447.979 296.361 447.959 297.704 447.78 299.03C447.54 300.7 446.96 302.34 447.1 304.03C447.283 304.968 447.743 305.829 448.42 306.503C449.098 307.176 449.961 307.632 450.9 307.81C454.9 306.51 459.67 308.71 461.9 311.81C464.13 314.91 464.44 318.66 464.71 322.25C467.36 322.81 468.85 319.81 469.09 317.56C470.09 308.35 470.14 298.97 473.23 290.09C476.32 281.21 483.07 272.61 493.45 269.19C496.98 267.965 500.752 267.605 504.45 268.14C506.64 268.51 508.71 269.27 510.9 269.63C518.47 270.88 526.72 267.29 533.83 269.79C538.28 271.36 541.15 274.99 543.19 278.63C544.099 280.584 545.33 282.372 546.83 283.92C549.83 286.62 554.59 287.33 558.91 288.18C563.23 289.03 567.62 290.39 569.6 293.49C569.65 293.32 569.68 293.1 569.72 292.88Z" fill="black"/>
<path opacity="0.1" d="M447.8 288.34C448.034 285.624 447.873 282.889 447.32 280.22C446.892 283.036 446.798 285.892 447.04 288.73C447.1 289.46 447.2 290.18 447.3 290.91C447.42 290.05 447.64 289.2 447.8 288.34Z" fill="black"/>
</g>
<path d="M908.73 398.69H818.73V461.14H908.73V398.69Z" fill="white"/>
<path opacity="0.1" d="M900.71 445.81C899.426 447.969 897.449 449.629 895.1 450.52C895.202 451.319 895.218 452.127 895.15 452.93L886.15 452.39L894.91 454.31C894.325 456.981 892.79 459.347 890.59 460.97H878.41V461.29H865.99C865.99 461.18 865.99 461.08 866.07 460.97C866.337 459.953 866.747 458.98 867.29 458.08C868.573 455.924 870.546 454.265 872.89 453.37C872.57 450.879 873.097 448.353 874.387 446.198C875.677 444.044 877.654 442.385 880 441.49C879.93 440.98 879.9 440.465 879.91 439.95L885.7 442.23L879.97 438.87C880.132 437.351 880.603 435.882 881.355 434.553C882.106 433.223 883.122 432.062 884.34 431.14L889.61 439.68L885.66 430.28C887.812 429.108 890.29 428.675 892.712 429.046C895.134 429.418 897.368 430.573 899.071 432.336C900.773 434.099 901.851 436.371 902.138 438.805C902.425 441.239 901.906 443.7 900.66 445.81H900.71Z" fill="#2F80ED"/>
<path opacity="0.1" d="M893.6 457.72C892.834 459.006 891.813 460.122 890.6 461H878.41V461.32H865.99C865.99 461.21 865.99 461.11 866.07 461C866.337 459.983 866.747 459.01 867.29 458.11C868.573 455.954 870.546 454.295 872.89 453.4C872.79 452.59 875.2 452.7 878.41 453.24C884.69 454.3 894.03 457.01 893.6 457.72Z" fill="#2F80ED"/>
<path opacity="0.1" d="M822.15 445.81C823.434 447.969 825.411 449.629 827.76 450.52C827.658 451.319 827.642 452.127 827.71 452.93L836.71 452.39L827.95 454.31C828.535 456.981 830.07 459.347 832.27 460.97H844.48V461.29H856.91C856.91 461.18 856.85 461.08 856.83 460.97C856.555 459.956 856.144 458.984 855.61 458.08C854.321 455.926 852.345 454.267 850 453.37C850.32 450.879 849.792 448.353 848.503 446.198C847.213 444.044 845.236 442.385 842.89 441.49C842.958 440.98 842.992 440.465 842.99 439.95L837.2 442.23L842.92 438.87C842.758 437.351 842.287 435.882 841.535 434.553C840.784 433.223 839.768 432.062 838.55 431.14L833.28 439.68L837.23 430.28C835.078 429.108 832.6 428.675 830.178 429.046C827.756 429.418 825.522 430.573 823.819 432.336C822.117 434.099 821.039 436.371 820.752 438.805C820.465 441.239 820.984 443.7 822.23 445.81H822.15Z" fill="#2F80ED"/>
<path opacity="0.1" d="M829.26 457.72C830.026 459.006 831.047 460.122 832.26 461H844.47V461.32H856.9C856.9 461.21 856.84 461.11 856.82 461C856.545 459.986 856.134 459.014 855.6 458.11C854.311 455.955 852.335 454.297 849.99 453.4C850.09 452.59 847.68 452.7 844.47 453.24C838.17 454.3 828.8 457.01 829.26 457.72Z" fill="#2F80ED"/>
<path d="M872.62 412.45H852.51V434.85H872.62V412.45Z" fill="#464353"/>
<path opacity="0.1" d="M872.62 412.45H852.51V434.85H872.62V412.45Z" fill="black"/>
<path d="M843.94 455.35L843.53 461.17H849.27L849.63 453.48L843.94 455.35Z" fill="#A1616A"/>
<path d="M874.18 455.35L873.31 461.17H878.57L878.9 453.48L874.18 455.35Z" fill="#A1616A"/>
<path d="M857.53 423.66C857.53 423.66 857.33 426.57 856.63 427.33C855.93 428.09 862.88 434.82 868.35 428.17C868.35 428.17 866 426.17 866.55 423.93C867.1 421.69 857.53 423.66 857.53 423.66Z" fill="#A1616A"/>
<path opacity="0.1" d="M857.53 423.66C857.53 423.66 857.33 426.57 856.63 427.33C855.93 428.09 862.88 434.82 868.35 428.17C868.35 428.17 866 426.17 866.55 423.93C867.1 421.69 857.53 423.66 857.53 423.66Z" fill="black"/>
<path d="M862.56 426.26C868.116 426.26 872.62 421.756 872.62 416.2C872.62 410.644 868.116 406.14 862.56 406.14C857.004 406.14 852.5 410.644 852.5 416.2C852.5 421.756 857.004 426.26 862.56 426.26Z" fill="#A1616A"/>
<path d="M862.04 429.9C862.04 429.9 857.82 429.83 857.19 425.98C856.354 426.703 855.472 427.371 854.55 427.98C854.14 428.12 850.11 430.4 849.35 430.54C848.607 430.691 847.917 431.036 847.35 431.54C846.356 432.321 845.543 433.308 844.969 434.434C844.394 435.56 844.07 436.797 844.02 438.06C843.88 442.57 843.33 451.38 843.33 451.38L843.54 454.57V456.65C843.54 456.65 847.28 457.65 849.54 455.65C849.54 455.65 849.54 454.89 849.96 454.65C850.38 454.41 850.44 453.4 850.37 452.98C850.334 452.357 850.334 451.733 850.37 451.11C850.442 451.449 850.643 451.746 850.93 451.94C851.096 452.504 851.144 453.097 851.07 453.68C850.86 454.09 850.65 455.06 850.86 455.27C850.966 455.456 851.009 455.671 850.984 455.883C850.959 456.095 850.866 456.294 850.72 456.45C850.339 456.984 850.035 457.57 849.82 458.19C849.82 458.19 849.61 459.43 849.4 459.57C849.163 460.077 849.002 460.616 848.92 461.17H873.92C873.479 459.903 873.144 458.602 872.92 457.28C872.99 456.66 872.3 454.09 872.78 453.4C873.487 452.485 873.876 451.366 873.89 450.21L874.17 452.91L873.41 458.91C873.41 458.91 878.05 460.37 878.54 459.46C879.059 457.876 879.453 456.255 879.72 454.61C879.72 454.61 880.83 449.61 881.11 448.92C881.39 448.23 882.01 434.36 878.26 432.35C874.51 430.34 867.44 426.88 867.26 427.05C866.86 428.06 866.119 428.898 865.165 429.419C864.212 429.939 863.106 430.11 862.04 429.9Z" fill="#2F80ED"/>
<path opacity="0.1" d="M849.99 443.46C849.276 444.482 848.969 445.734 849.13 446.97C849.298 448.194 849.699 449.376 850.31 450.45" stroke="black" stroke-miterlimit="10"/>
<path opacity="0.1" d="M874.28 444.41C874.46 444.918 874.6 445.44 874.7 445.97C874.88 446.632 874.914 447.326 874.8 448.002C874.686 448.679 874.427 449.323 874.04 449.89" stroke="black" stroke-miterlimit="10"/>
<path d="M858.06 409.32C858.846 409.11 859.682 409.195 860.41 409.56C861.126 409.929 861.876 410.227 862.65 410.45C863.17 410.56 863.65 410.56 864.23 410.64C865.196 410.815 866.087 411.276 866.789 411.962C867.491 412.648 867.972 413.528 868.17 414.49C868.62 416.95 867.17 419.37 867.17 421.88C867.175 423.316 867.681 424.706 868.6 425.81C869.371 426.513 870.044 427.317 870.6 428.2C870.89 428.84 870.95 429.57 871.23 430.2C871.842 431.333 872.855 432.196 874.07 432.62C875.275 433.025 876.437 433.547 877.54 434.18C879.54 435.51 880.72 438.06 883.04 438.61C883.155 438.66 883.279 438.685 883.405 438.685C883.531 438.685 883.655 438.66 883.77 438.61C883.875 438.526 883.961 438.42 884.02 438.299C884.078 438.177 884.109 438.045 884.11 437.91C884.168 437.42 884.114 436.924 883.953 436.458C883.792 435.993 883.528 435.569 883.18 435.22C882.61 434.65 881.78 434.22 881.6 433.45C881.42 432.68 881.9 432.02 882.16 431.32C882.99 429.05 881.61 426.58 880.04 424.74C878.47 422.9 876.59 421.08 876.21 418.74C876.12 417.95 876.09 417.154 876.12 416.36C876.091 414.723 875.808 413.1 875.28 411.55C875.026 410.712 874.62 409.929 874.08 409.24C873.58 408.64 872.94 408.18 872.42 407.6C871.729 406.646 871.108 405.643 870.56 404.6C869.765 403.364 868.68 402.341 867.398 401.621C866.117 400.901 864.679 400.506 863.21 400.47C860.4 400.47 857.74 401.71 855.36 403.2C854.485 403.678 853.726 404.344 853.14 405.15C852.14 406.74 852.44 408.84 851.86 410.64C851.28 412.44 849.91 413.77 849.43 415.53C849.282 416.047 849.258 416.592 849.36 417.12C849.538 417.677 849.777 418.214 850.07 418.72C850.601 420.008 850.902 421.378 850.96 422.77C851.11 424.45 851.18 426.26 850.3 427.69C849.617 428.557 848.767 429.278 847.8 429.81C848.781 430.606 850.032 430.989 851.29 430.88C853.19 430.96 855.39 430.88 856.57 429.38C857.276 428.303 857.561 427.004 857.37 425.73C857.277 424.338 856.994 422.966 856.53 421.65C855.88 419.8 854.88 418.05 854.59 416.11C854.476 415.41 854.506 414.695 854.678 414.007C854.85 413.319 855.16 412.674 855.59 412.11C855.95 411.66 856.59 411.43 856.89 410.95C857.27 410.31 857.16 409.64 858.06 409.32Z" fill="#464353"/>
<g opacity="0.1">
<path opacity="0.1" d="M850.07 418.59C850.601 419.878 850.902 421.248 850.96 422.64C850.96 423.08 851.03 423.53 851.04 423.98C851.145 423.003 851.145 422.017 851.04 421.04C850.979 419.665 850.677 418.311 850.15 417.04C849.862 416.534 849.625 416.002 849.44 415.45C849.292 415.964 849.268 416.505 849.37 417.03C849.548 417.573 849.783 418.096 850.07 418.59Z" fill="black"/>
<path opacity="0.1" d="M856.66 427.81C855.48 429.3 853.28 429.39 851.38 429.32C850.576 429.323 849.777 429.201 849.01 428.96C848.63 429.27 848.22 429.56 847.82 429.84C848.801 430.636 850.052 431.019 851.31 430.91C853.21 430.99 855.41 430.91 856.59 429.41C857.266 428.41 857.557 427.198 857.41 426C857.321 426.658 857.063 427.282 856.66 427.81Z" fill="black"/>
<path opacity="0.1" d="M881.67 431.81C881.698 431.924 881.738 432.035 881.79 432.14C881.91 431.86 882.05 431.57 882.16 431.28C882.4 430.621 882.469 429.912 882.36 429.22C882.326 429.379 882.283 429.536 882.23 429.69C881.97 430.39 881.5 431.09 881.67 431.81Z" fill="black"/>
<path opacity="0.1" d="M868.23 414.97C868.345 414.285 868.345 413.585 868.23 412.9C868.034 411.938 867.553 411.057 866.851 410.37C866.148 409.684 865.256 409.224 864.29 409.05C863.76 408.96 863.23 408.96 862.71 408.86C861.937 408.633 861.188 408.335 860.47 407.97C859.744 407.602 858.908 407.513 858.12 407.72C857.22 408.04 857.33 408.72 856.93 409.38C856.64 409.86 855.99 410.1 855.63 410.54C854.837 411.597 854.48 412.917 854.63 414.23C854.755 413.465 855.076 412.745 855.56 412.14C855.92 411.69 856.56 411.46 856.86 410.98C857.26 410.31 857.15 409.64 858.05 409.32C858.836 409.11 859.672 409.196 860.4 409.56C861.116 409.929 861.866 410.227 862.64 410.45C863.16 410.56 863.64 410.56 864.22 410.64C865.186 410.815 866.077 411.276 866.779 411.962C867.481 412.648 867.962 413.528 868.16 414.49C868.193 414.648 868.217 414.809 868.23 414.97Z" fill="black"/>
<path opacity="0.1" d="M883.8 436.98C883.565 437.072 883.305 437.072 883.07 436.98C880.75 436.43 879.55 433.88 877.57 432.55C876.463 431.925 875.302 431.403 874.1 430.99C872.885 430.57 871.872 429.71 871.26 428.58C870.98 427.93 870.92 427.21 870.63 426.58C870.073 425.697 869.401 424.893 868.63 424.19C867.797 423.198 867.293 421.971 867.19 420.68C867.13 421.067 867.1 421.458 867.1 421.85C867.118 423.305 867.649 424.708 868.6 425.81C869.371 426.513 870.044 427.317 870.6 428.2C870.89 428.84 870.95 429.57 871.23 430.2C871.842 431.333 872.855 432.196 874.07 432.62C875.275 433.025 876.437 433.547 877.54 434.18C879.54 435.51 880.72 438.06 883.04 438.61C883.155 438.66 883.279 438.685 883.405 438.685C883.531 438.685 883.655 438.66 883.77 438.61C883.875 438.526 883.96 438.419 884.019 438.298C884.077 438.177 884.109 438.044 884.11 437.91C884.155 437.533 884.135 437.15 884.05 436.78C883.986 436.868 883.9 436.937 883.8 436.98Z" fill="black"/>
</g>
<path opacity="0.1" d="M840.77 403.28H827.91V421.65H840.77V403.28Z" fill="#2F80ED"/>
<path opacity="0.1" d="M838.93 405.91H829.75V419.03H838.93V405.91Z" fill="#2F80ED"/>
<path opacity="0.1" d="M904.13 406.04H883.01V417.06H904.13V406.04Z" fill="#2F80ED"/>
<path opacity="0.1" d="M901.38 407.48H885.77V415.63H901.38V407.48Z" fill="#2F80ED"/>
</g>
<defs>
<clipPath id="clip0">
<rect width="1155.6" height="697.61" fill="white"/>
</clipPath>
</defs>
</svg>
