<svg width="103" height="81" viewBox="0 0 103 81" fill="none" xmlns="http://www.w3.org/2000/svg">
<circle cx="44.7872" cy="44.2341" r="35.0426" fill="url(#paint0_linear)"/>
<path d="M41.2759 21.437C37.0982 18.1258 36.828 16.3401 36.773 15.8248C36.4478 12.733 38.9794 9.25341 41.2759 9.19219C42.9369 9.15137 43.2221 10.9269 46.2791 13.2738C50.4117 16.4524 52.8133 15.4422 54.2842 17.8656C55.8903 20.5136 55.0998 25.1258 52.7833 26.5391C49.9214 28.2891 45.4235 24.7227 41.2759 21.437Z" fill="#282828"/>
<path d="M43.6383 12.6383C43.7253 12.8936 44.1083 13.5575 44.9439 14.1702C45.7795 14.783 46.3366 14.9362 46.5106 14.9362" stroke="black" stroke-linecap="round" stroke-linejoin="round"/>
<g filter="url(#filter0_d)">
<path d="M41.3405 28.9955C41.7325 29.4838 42.6273 30.7328 42.8484 32.5935C43.0495 34.2846 42.5921 35.6055 42.3458 36.1915C44.3564 36.1915 46.367 36.1915 48.3777 36.1915C48.056 35.1943 47.6086 33.3491 47.875 31.0515C48.1213 28.9133 48.8753 27.3148 49.383 26.4255C46.7038 27.2839 44.0196 28.1371 41.3405 28.9955Z" fill="#F4BE8D"/>
</g>
<g filter="url(#filter1_d)">
<path d="M94.8111 17.215C97.1005 15.8932 98.3924 13.8448 97.6967 12.6399C97.001 11.4349 94.5811 11.5297 92.2917 12.8515C90.0023 14.1733 88.7103 16.2217 89.406 17.4266C90.1017 18.6316 92.5217 18.5368 94.8111 17.215Z" fill="#F4BE8D"/>
</g>
<g filter="url(#filter2_d)">
<path d="M9.74967 14.257C11.0508 13.7637 11.3458 11.3599 10.4086 8.88776C9.47143 6.41568 7.65695 4.81151 6.35585 5.30477C5.05475 5.79802 4.75973 8.2019 5.69691 10.674C6.63409 13.1461 8.44857 14.7502 9.74967 14.257Z" fill="#F4BE8D"/>
</g>
<path d="M30.0526 79.9896C29.6192 73.6038 29.4025 66.6774 29.5487 59.2761C29.6696 53.0116 30.0375 47.1007 30.5565 41.5939C28.7676 39.7954 26.7519 37.9261 24.5095 36.0367C21.7127 33.6824 18.9916 31.6767 16.4468 29.9742C14.6176 27.1804 12.7228 23.9825 10.9037 20.3753C9.28609 17.1672 7.96078 14.1107 6.87231 11.2816C7.71386 10.7764 8.55037 10.2712 9.39191 9.76596C11.6847 12.777 14.038 15.8082 16.4468 18.8597C17.7922 20.5622 19.1377 22.2445 20.4781 23.9117C23.5873 25.5991 26.7822 27.2865 30.0526 28.9638C32.4261 30.1813 34.7794 31.3585 37.1075 32.5002C42.1467 32.6669 47.1859 32.8387 52.2251 33.0054C58.2822 30.3582 64.5056 27.5037 70.8701 24.4169C78.0963 20.9108 84.9849 17.3592 91.5308 13.8076C92.0347 14.9847 92.5386 16.1669 93.0425 17.344C88.7643 21.709 83.7452 26.3468 77.9249 30.9846C70.2654 37.0926 62.8678 41.887 56.2564 45.6356C56.0851 51.3596 55.9137 57.0886 55.7525 62.8126C55.5812 68.8751 55.4098 74.9375 55.2486 81C46.8482 80.6615 38.4529 80.3281 30.0526 79.9896Z" fill="url(#paint1_linear)"/>
<path d="M33.957 46.6183C33.7108 45.8601 34.0595 42.09 34.2646 40.2997C34.7568 40.047 39.1869 40.405 41.3404 40.6156L40.7251 47.5661L37.0334 48.8298C36.1105 48.4086 34.2031 47.3765 33.957 46.6183Z" fill="#687691"/>
<g filter="url(#filter3_d)">
<path d="M42.9619 30.9723C42.2114 31.0384 40.8635 31.1453 39.388 30.4634C38.3924 30.0055 37.7235 29.3644 37.3457 28.937C37.1568 28.4536 35.8294 24.8664 37.8563 21.3046C39.5156 18.3891 42.3084 17.4376 42.9619 17.234C48.6598 17.9718 52.0908 22.2002 51.6415 25.3752C51.1156 29.0693 45.4075 30.7484 42.9619 30.9723Z" fill="#F4BE8D"/>
</g>
<path d="M37.8936 24.1277C37.8936 24.3574 38.0467 24.863 38.6595 25.0468C39.2723 25.2306 39.9361 25.2766 40.1914 25.2766" stroke="black"/>
<path d="M78.9517 5.70607C79.5302 5.19809 80.4543 5.51105 80.605 6.26595C80.7557 7.02085 80.0226 7.66467 79.2935 7.41774C78.5644 7.17082 78.3733 6.21404 78.9517 5.70607Z" fill="#FF7070"/>
<path d="M22.1859 12.1503C22.0755 11.3885 22.8417 10.7845 23.5567 11.0698C24.2717 11.3552 24.4116 12.3207 23.807 12.7973C23.2024 13.2738 22.2963 12.9122 22.1859 12.1503Z" fill="#FF7070"/>
<path d="M10.6561 32.7464C10.2743 32.3105 10.5075 31.6246 11.076 31.5119C11.6445 31.3991 12.1218 31.9441 11.9352 32.4927C11.7486 33.0414 11.038 33.1823 10.6561 32.7464Z" fill="#FF7070"/>
<path d="M27.3028 0.368096C27.5152 0.714997 27.7178 1.12223 27.6869 1.53797C27.6745 1.70522 27.6311 1.8752 27.5454 2.01126C27.4389 2.18074 27.2756 2.2964 27.0908 2.36765C26.8932 2.44355 26.6826 2.47193 26.4727 2.48454C26.4192 2.48773 26.3646 2.49166 26.3103 2.49078C26.3028 2.49094 26.2335 2.48199 26.2603 2.49365C26.2616 2.49428 26.2671 2.50397 26.2675 2.50669C26.2631 2.4848 26.2632 2.45964 26.2637 2.43719C26.2648 2.39761 26.2732 2.34589 26.2823 2.3027C26.3554 1.97344 26.6582 1.7495 26.9819 1.75759C27.1717 1.76264 27.3321 1.84001 27.4725 1.96994C27.6165 2.10263 27.7463 2.27599 27.8266 2.45493C27.9091 2.63995 27.9267 2.82643 27.8797 3.02412C27.8378 3.2014 27.7456 3.36957 27.6388 3.51648C27.3885 3.86119 27.0308 4.11595 26.623 4.23974C26.4388 4.29606 26.2368 4.32578 26.0476 4.28151C26.0147 4.27422 25.9741 4.26572 25.9461 4.24726C25.9005 4.21725 25.9456 4.24763 25.9139 4.21666C25.9164 4.22015 25.9181 4.2235 25.9206 4.22698C25.9139 4.20605 25.9129 4.2037 25.9182 4.22041C25.9274 4.18253 25.9319 4.14656 25.9665 4.11834C26.0031 4.08867 25.9431 4.12091 25.9935 4.10176C26.0199 4.0917 26.0338 4.08767 26.0568 4.08461C26.1034 4.07812 26.1456 4.08244 26.1942 4.09127C26.3002 4.11076 26.4023 4.15525 26.4983 4.20411C26.6928 4.3031 26.8674 4.44848 27.0086 4.61432C27.3344 4.9982 27.5005 5.48371 27.5785 5.97547C27.5944 6.07422 27.677 6.15105 27.7809 6.14017C27.8758 6.13055 27.9635 6.03634 27.9473 5.93709C27.8606 5.3923 27.6814 4.84558 27.3256 4.41509C27.1509 4.20433 26.9446 4.02798 26.7053 3.89467C26.4927 3.77611 26.2241 3.67318 25.9759 3.72357C25.728 3.77447 25.5102 4.00051 25.5497 4.26768C25.5941 4.56784 25.9225 4.66148 26.1852 4.66985C26.7197 4.68669 27.2616 4.42508 27.6447 4.06292C28.0137 3.71404 28.3316 3.20222 28.271 2.67649C28.2395 2.4035 28.1059 2.15226 27.9392 1.93875C27.7762 1.72935 27.5754 1.53 27.3165 1.44668C26.8216 1.28843 26.2979 1.48352 26.0344 1.93528C25.9726 2.04102 25.9304 2.15994 25.9088 2.27984C25.8873 2.39974 25.8774 2.54309 25.9275 2.65729C26.0495 2.93369 26.4431 2.86513 26.6846 2.83711C27.2186 2.77524 27.7485 2.53914 27.9562 2.00852C28.1511 1.5139 28.0407 0.976485 27.8097 0.517602C27.7465 0.391653 27.6769 0.269577 27.6034 0.149554C27.5513 0.0641972 27.4212 0.0537975 27.3446 0.109526C27.2579 0.172539 27.2507 0.28274 27.3028 0.368096Z" fill="#7896C9"/>
<path d="M68.0598 19.7929C68.3578 19.3183 68.7361 18.8187 69.2681 18.6021C69.4821 18.515 69.7184 18.4644 69.9388 18.4867C70.2132 18.5143 70.456 18.6449 70.6572 18.8294C70.8719 19.0266 71.0359 19.2692 71.1801 19.5204C71.2169 19.5846 71.2552 19.6495 71.2873 19.717C71.2921 19.7262 71.3235 19.8172 71.3215 19.7769C71.3215 19.775 71.3301 19.7623 71.3332 19.7601C71.3089 19.7789 71.2778 19.7942 71.2497 19.8073C71.2002 19.8303 71.1313 19.8516 71.0724 19.8668C70.6213 19.9783 70.1594 19.7419 69.971 19.3375C69.861 19.1002 69.8582 18.8549 69.9325 18.602C70.008 18.3431 70.1424 18.0766 70.314 17.8679C70.4918 17.6528 70.7111 17.5168 70.9838 17.4536C71.2283 17.3967 71.4923 17.4074 71.739 17.4492C72.3177 17.5468 72.8513 17.8322 73.2539 18.2595C73.4363 18.4523 73.5967 18.6834 73.658 18.944C73.6692 18.989 73.6836 19.0444 73.678 19.0902C73.6688 19.1648 73.6787 19.0906 73.6599 19.1487C73.6627 19.1434 73.6658 19.1393 73.6685 19.134C73.6469 19.1552 73.6445 19.1578 73.6619 19.1411C73.6095 19.153 73.5624 19.1695 73.5064 19.144C73.4473 19.117 73.5239 19.1713 73.4694 19.1209C73.4408 19.0945 73.4273 19.0798 73.4094 19.0532C73.3728 18.9997 73.3523 18.945 73.3335 18.8797C73.2925 18.7368 73.2849 18.5837 73.2864 18.4352C73.2893 18.1346 73.3617 17.83 73.4799 17.5541C73.7539 16.9169 74.2513 16.4144 74.8103 16.0169C74.9224 15.9368 74.9666 15.7877 74.8895 15.6662C74.8195 15.555 74.6495 15.5045 74.537 15.5853C73.9178 16.0261 73.353 16.5822 73.0398 17.2851C72.8867 17.6298 72.7955 17.9924 72.7777 18.3694C72.7616 18.7044 72.7992 19.0989 73.0135 19.3743C73.2282 19.649 73.6406 19.7793 73.946 19.5668C74.2892 19.3282 74.2035 18.8655 74.0529 18.5363C73.7462 17.8663 73.0913 17.3579 72.4097 17.1071C71.7531 16.8655 70.9267 16.7868 70.3151 17.1837C69.9975 17.3898 69.7694 17.7087 69.6081 18.0452C69.4495 18.3746 69.3266 18.7446 69.3824 19.1151C69.4903 19.8228 70.052 20.3495 70.7709 20.3979C70.9392 20.4093 71.1118 20.3885 71.273 20.3417C71.4342 20.2948 71.6171 20.2192 71.7274 20.0874C71.9937 19.7674 71.6679 19.3238 71.4853 19.0429C71.0818 18.4219 70.4658 17.9127 69.6837 17.9815C68.954 18.0441 68.3584 18.5096 67.9337 19.0758C67.817 19.231 67.709 19.3917 67.606 19.5559C67.5325 19.6725 67.5994 19.8394 67.7152 19.8998C67.846 19.9682 67.9864 19.9095 68.0598 19.7929Z" fill="#7896C9"/>
<defs>
<filter id="filter0_d" x="37.3405" y="22.4255" width="16.0426" height="17.766" filterUnits="userSpaceOnUse" color-interpolation-filters="sRGB">
<feFlood flood-opacity="0" result="BackgroundImageFix"/>
<feColorMatrix in="SourceAlpha" type="matrix" values="0 0 0 0 0 0 0 0 0 0 0 0 0 0 0 0 0 0 127 0"/>
<feOffset/>
<feGaussianBlur stdDeviation="2"/>
<feColorMatrix type="matrix" values="0 0 0 0 0 0 0 0 0 0 0 0 0 0 0 0 0 0 0.05 0"/>
<feBlend mode="normal" in2="BackgroundImageFix" result="effect1_dropShadow"/>
<feBlend mode="normal" in="SourceGraphic" in2="effect1_dropShadow" result="shape"/>
</filter>
<filter id="filter1_d" x="84.1464" y="6.4581" width="18.81" height="17.1503" filterUnits="userSpaceOnUse" color-interpolation-filters="sRGB">
<feFlood flood-opacity="0" result="BackgroundImageFix"/>
<feColorMatrix in="SourceAlpha" type="matrix" values="0 0 0 0 0 0 0 0 0 0 0 0 0 0 0 0 0 0 127 0"/>
<feOffset/>
<feGaussianBlur stdDeviation="2"/>
<feColorMatrix type="matrix" values="0 0 0 0 0 0 0 0 0 0 0 0 0 0 0 0 0 0 0.05 0"/>
<feBlend mode="normal" in2="BackgroundImageFix" result="effect1_dropShadow"/>
<feBlend mode="normal" in="SourceGraphic" in2="effect1_dropShadow" result="shape"/>
</filter>
<filter id="filter2_d" x="0" y="0.411652" width="16.1055" height="18.7384" filterUnits="userSpaceOnUse" color-interpolation-filters="sRGB">
<feFlood flood-opacity="0" result="BackgroundImageFix"/>
<feColorMatrix in="SourceAlpha" type="matrix" values="0 0 0 0 0 0 0 0 0 0 0 0 0 0 0 0 0 0 127 0"/>
<feOffset/>
<feGaussianBlur stdDeviation="2"/>
<feColorMatrix type="matrix" values="0 0 0 0 0 0 0 0 0 0 0 0 0 0 0 0 0 0 0.05 0"/>
<feBlend mode="normal" in2="BackgroundImageFix" result="effect1_dropShadow"/>
<feBlend mode="normal" in="SourceGraphic" in2="effect1_dropShadow" result="shape"/>
</filter>
<filter id="filter3_d" x="32.7446" y="13.234" width="22.9362" height="21.7872" filterUnits="userSpaceOnUse" color-interpolation-filters="sRGB">
<feFlood flood-opacity="0" result="BackgroundImageFix"/>
<feColorMatrix in="SourceAlpha" type="matrix" values="0 0 0 0 0 0 0 0 0 0 0 0 0 0 0 0 0 0 127 0"/>
<feOffset/>
<feGaussianBlur stdDeviation="2"/>
<feColorMatrix type="matrix" values="0 0 0 0 0 0 0 0 0 0 0 0 0 0 0 0 0 0 0.05 0"/>
<feBlend mode="normal" in2="BackgroundImageFix" result="effect1_dropShadow"/>
<feBlend mode="normal" in="SourceGraphic" in2="effect1_dropShadow" result="shape"/>
</filter>
<linearGradient id="paint0_linear" x1="45.2807" y1="79.2766" x2="45.2807" y2="9.1915" gradientUnits="userSpaceOnUse">
<stop stop-color="#689CFF"/>
<stop offset="1" stop-color="white" stop-opacity="0"/>
</linearGradient>
<linearGradient id="paint1_linear" x1="50.2094" y1="76.4531" x2="50.5661" y2="9.76597" gradientUnits="userSpaceOnUse">
<stop stop-color="white"/>
<stop offset="1" stop-color="#001845"/>
</linearGradient>
</defs>
</svg>