<svg width="108" height="88" viewBox="0 0 108 88" fill="none" xmlns="http://www.w3.org/2000/svg">
<mask id="mask0" mask-type="alpha" maskUnits="userSpaceOnUse" x="20" y="6" width="74" height="74">
<circle cx="57.0137" cy="42.9135" r="36.783" fill="#8AB9FF"/>
</mask>
<g mask="url(#mask0)">
<rect x="93.7966" y="6.13049" width="73.566" height="73.566" transform="rotate(90 93.7966 6.13049)" fill="url(#paint0_linear)"/>
<path d="M31.2656 26.7235C31.2656 24.5165 28.2004 22.7387 26.6677 22.1256L20.2307 16.3016C25.646 9.04722 36.3539 -2.76421 35.8635 8.02547C35.2504 21.5126 40.1548 15.6886 49.6571 18.7538C59.1594 21.8191 47.5114 26.7235 43.2201 26.7235C38.9287 26.7235 35.8635 35.6127 32.1852 35.6127C28.5069 35.6127 31.2656 29.4822 31.2656 26.7235Z" fill="#98EDB0"/>
<path d="M51.4962 34.6373C46.5918 35.6182 45.5701 42.1983 45.6722 45.3657C45.3657 45.8766 46.2853 48.4309 52.4158 54.5614C60.0789 62.2246 62.2246 49.3505 66.2094 46.8983C70.1943 44.4461 77.5509 49.9636 80.0031 45.3657C82.4553 40.7678 78.777 30.6525 72.6465 29.4264C66.516 28.2003 67.129 36.4765 63.7572 38.0091C60.3855 39.5417 57.6267 33.4112 51.4962 34.6373Z" fill="#98EDB0"/>
<path d="M40.1548 67.129C34.5147 67.3742 34.5351 73.9747 35.2504 77.2443L54.5614 81.5357L75.0986 79.39C76.3247 76.8356 76.999 71.1751 69.8877 68.9681C60.9984 66.2094 57.6267 73.566 52.1092 74.7921C46.5918 76.0182 47.2048 66.8225 40.1548 67.129Z" fill="#98EDB0"/>
<path d="M79.6962 18.085C78.2249 15.3876 80.3093 14.5089 81.5354 14.4067C81.8419 14.1002 84.1715 14.7745 91.0376 19.9241C97.9038 25.0738 97.1681 34.9439 95.942 39.2352C92.8768 37.6004 86.5011 34.0243 85.5202 32.7982C84.2941 31.2656 85.5202 27.8938 84.6006 24.2155C83.681 20.5372 81.5354 21.4568 79.6962 18.085Z" fill="#98EDB0"/>
</g>
<g clip-path="url(#clip0)">
<rect x="32.4917" y="34.0373" width="50.9761" height="26.8295" rx="4" transform="rotate(-15 32.4917 34.0373)" fill="#FFF9E9"/>
<g filter="url(#filter0_d)">
<path d="M61.2777 42.9897L33.8268 42.4753L31.3964 33.4049L82.7951 19.6326L85.2255 28.703L61.2777 42.9897Z" fill="#EEE5CD"/>
</g>
<path d="M67.6606 36.0231C67.93 37.0283 67.8229 38.136 67.2729 39.1044L66.4731 40.5126L62.6556 47.2338C62.6032 47.3261 62.5468 47.4161 62.4888 47.5C62.3948 47.4552 62.3029 47.4066 62.2098 47.3532L55.5413 43.4401L54.1453 42.6236C53.1844 42.0584 52.5367 41.1546 52.2669 40.1478C51.998 39.1442 52.107 38.0376 52.6566 37.0677C53.7576 35.1291 56.2102 34.472 58.1315 35.6007L59.5147 36.4124L60.3067 35.0179C61.4078 33.0793 63.8603 32.4221 65.7831 33.5505C66.7455 34.1152 67.3917 35.0194 67.6606 36.0231Z" fill="#FF7070"/>
</g>
<path d="M15.8198 51.4962C11.4263 55.5832 5.58191 62.8376 17.3525 59.1593C29.123 55.481 32.7982 53.0288 33.9048 52.4158" stroke="#244788" stroke-width="3" stroke-linecap="round" stroke-linejoin="round"/>
<path d="M14.8206 12.2403C14.9858 11.6768 15.7801 11.6658 15.9608 12.2246L15.9779 12.2773C16.0385 12.4648 16.1855 12.6117 16.3729 12.6724L16.4257 12.6895C16.9844 12.8702 16.9734 13.6644 16.4099 13.8296C16.2149 13.8868 16.0624 14.0393 16.0052 14.2343C15.8401 14.7978 15.0458 14.8088 14.8651 14.2501L14.848 14.1973C14.7874 14.0098 14.6404 13.8629 14.4529 13.8023L14.4002 13.7852C13.8415 13.6045 13.8524 12.8102 14.4159 12.645C14.611 12.5879 14.7635 12.4354 14.8206 12.2403Z" fill="#2E456C"/>
<path d="M29.333 82.1367C29.55 81.3964 30.5935 81.382 30.8309 82.116L30.8534 82.1854C30.933 82.4316 31.1261 82.6247 31.3724 82.7044L31.4417 82.7268C32.1758 82.9642 32.1613 84.0077 31.421 84.2247C31.1648 84.2999 30.9644 84.5002 30.8893 84.7564C30.6723 85.4967 29.6288 85.5112 29.3914 84.7771L29.369 84.7078C29.2893 84.4615 29.0962 84.2684 28.85 84.1888L28.7806 84.1663C28.0466 83.9289 28.061 82.8854 28.8013 82.6684C29.0576 82.5933 29.2579 82.393 29.333 82.1367Z" fill="#2E456C"/>
<path d="M104.607 54.249C104.769 53.6942 105.551 53.6834 105.729 54.2334L105.746 54.2854C105.806 54.47 105.95 54.6146 106.135 54.6743L106.187 54.6911C106.737 54.8691 106.726 55.651 106.171 55.8137C105.979 55.87 105.829 56.0201 105.773 56.2121C105.61 56.7669 104.828 56.7777 104.651 56.2276L104.634 56.1757C104.574 55.9911 104.429 55.8464 104.245 55.7867L104.193 55.7699C103.643 55.592 103.654 54.81 104.208 54.6474C104.4 54.5911 104.55 54.441 104.607 54.249Z" fill="#2E456C"/>
<path d="M96.0833 4.10058C96.2502 3.53109 97.0529 3.51997 97.2356 4.08463L97.2528 4.13797C97.3141 4.32743 97.4626 4.47594 97.6521 4.53722L97.7054 4.55448C98.2701 4.73712 98.259 5.53984 97.6895 5.70679C97.4924 5.76457 97.3383 5.91869 97.2805 6.11578C97.1135 6.68528 96.3108 6.69639 96.1282 6.13173L96.1109 6.07837C96.0496 5.88892 95.9011 5.7404 95.7117 5.67912L95.6583 5.66187C95.0937 5.47922 95.1048 4.67652 95.6743 4.50958C95.8714 4.4518 96.0255 4.29767 96.0833 4.10058Z" fill="#2E456C"/>
<circle cx="90.1182" cy="71.1138" r="0.61305" fill="#7896C9"/>
<circle cx="0.61305" cy="39.8482" r="0.61305" fill="#7896C9"/>
<circle cx="72.3399" cy="0.61305" r="0.61305" fill="#7896C9"/>
<defs>
<filter id="filter0_d" x="27.3964" y="15.6326" width="63.7966" height="38.1853" filterUnits="userSpaceOnUse" color-interpolation-filters="sRGB">
<feFlood flood-opacity="0" result="BackgroundImageFix"/>
<feColorMatrix in="SourceAlpha" type="matrix" values="0 0 0 0 0 0 0 0 0 0 0 0 0 0 0 0 0 0 127 0"/>
<feOffset/>
<feGaussianBlur stdDeviation="2"/>
<feColorMatrix type="matrix" values="0 0 0 0 0 0 0 0 0 0 0 0 0 0 0 0 0 0 0.05 0"/>
<feBlend mode="normal" in2="BackgroundImageFix" result="effect1_dropShadow"/>
<feBlend mode="normal" in="SourceGraphic" in2="effect1_dropShadow" result="shape"/>
</filter>
<linearGradient id="paint0_linear" x1="131.36" y1="80.3647" x2="131.36" y2="6.79867" gradientUnits="userSpaceOnUse">
<stop stop-color="#6B91D7"/>
<stop offset="1" stop-color="#2F508C"/>
</linearGradient>
<clipPath id="clip0">
<rect x="32.4917" y="34.0373" width="50.9761" height="26.8295" rx="4" transform="rotate(-15 32.4917 34.0373)" fill="white"/>
</clipPath>
</defs>
</svg>
